G04 #@! TF.GenerationSoftware,KiCad,Pcbnew,(5.0.0)*
G04 #@! TF.CreationDate,2019-03-31T19:03:55-07:00*
G04 #@! TF.ProjectId,ulx3s_to_adda,756C7833735F746F5F616464612E6B69,rev?*
G04 #@! TF.SameCoordinates,Original*
G04 #@! TF.FileFunction,Legend,Top*
G04 #@! TF.FilePolarity,Positive*
%FSLAX46Y46*%
G04 Gerber Fmt 4.6, Leading zero omitted, Abs format (unit mm)*
G04 Created by KiCad (PCBNEW (5.0.0)) date 03/31/19 19:03:55*
%MOMM*%
%LPD*%
G01*
G04 APERTURE LIST*
%ADD10C,0.200000*%
%ADD11C,0.300000*%
%ADD12C,0.120000*%
%ADD13C,0.150000*%
G04 APERTURE END LIST*
D10*
X165100000Y-86995000D02*
X165100000Y-88265000D01*
X160655000Y-86995000D02*
X165100000Y-86995000D01*
X160655000Y-90170000D02*
X160655000Y-86995000D01*
X165100000Y-90170000D02*
X160655000Y-90170000D01*
X165100000Y-87630000D02*
X165100000Y-90170000D01*
X175895000Y-86995000D02*
X180340000Y-86995000D01*
X175895000Y-90170000D02*
X175895000Y-86995000D01*
X180340000Y-90170000D02*
X175895000Y-90170000D01*
X180340000Y-86995000D02*
X180340000Y-90170000D01*
X125730000Y-130810000D02*
X118110000Y-130810000D01*
X125730000Y-133350000D02*
X125730000Y-130810000D01*
X118110000Y-133350000D02*
X125730000Y-133350000D01*
X118110000Y-130810000D02*
X118110000Y-133350000D01*
D11*
X121332857Y-131258571D02*
X122261428Y-131258571D01*
X121761428Y-131830000D01*
X121975714Y-131830000D01*
X122118571Y-131901428D01*
X122190000Y-131972857D01*
X122261428Y-132115714D01*
X122261428Y-132472857D01*
X122190000Y-132615714D01*
X122118571Y-132687142D01*
X121975714Y-132758571D01*
X121547142Y-132758571D01*
X121404285Y-132687142D01*
X121332857Y-132615714D01*
X122690000Y-131258571D02*
X123190000Y-132758571D01*
X123690000Y-131258571D01*
X124047142Y-131258571D02*
X124975714Y-131258571D01*
X124475714Y-131830000D01*
X124690000Y-131830000D01*
X124832857Y-131901428D01*
X124904285Y-131972857D01*
X124975714Y-132115714D01*
X124975714Y-132472857D01*
X124904285Y-132615714D01*
X124832857Y-132687142D01*
X124690000Y-132758571D01*
X124261428Y-132758571D01*
X124118571Y-132687142D01*
X124047142Y-132615714D01*
D10*
X132080000Y-131445000D02*
X132080000Y-130810000D01*
X132080000Y-133350000D02*
X132080000Y-131445000D01*
X139700000Y-133350000D02*
X132080000Y-133350000D01*
X139700000Y-130810000D02*
X139700000Y-133350000D01*
X132080000Y-130810000D02*
X139700000Y-130810000D01*
D11*
X121023571Y-88982142D02*
X122166428Y-88982142D01*
X123952142Y-88196428D02*
X124023571Y-88125000D01*
X124166428Y-88053571D01*
X124523571Y-88053571D01*
X124666428Y-88125000D01*
X124737857Y-88196428D01*
X124809285Y-88339285D01*
X124809285Y-88482142D01*
X124737857Y-88696428D01*
X123880714Y-89553571D01*
X124809285Y-89553571D01*
X125309285Y-88053571D02*
X126309285Y-88053571D01*
X125666428Y-89553571D01*
X128023571Y-88982142D02*
X129166428Y-88982142D01*
X128595000Y-89553571D02*
X128595000Y-88410714D01*
X121023571Y-91532142D02*
X122166428Y-91532142D01*
X123952142Y-90746428D02*
X124023571Y-90675000D01*
X124166428Y-90603571D01*
X124523571Y-90603571D01*
X124666428Y-90675000D01*
X124737857Y-90746428D01*
X124809285Y-90889285D01*
X124809285Y-91032142D01*
X124737857Y-91246428D01*
X123880714Y-92103571D01*
X124809285Y-92103571D01*
X126095000Y-90603571D02*
X125809285Y-90603571D01*
X125666428Y-90675000D01*
X125595000Y-90746428D01*
X125452142Y-90960714D01*
X125380714Y-91246428D01*
X125380714Y-91817857D01*
X125452142Y-91960714D01*
X125523571Y-92032142D01*
X125666428Y-92103571D01*
X125952142Y-92103571D01*
X126095000Y-92032142D01*
X126166428Y-91960714D01*
X126237857Y-91817857D01*
X126237857Y-91460714D01*
X126166428Y-91317857D01*
X126095000Y-91246428D01*
X125952142Y-91175000D01*
X125666428Y-91175000D01*
X125523571Y-91246428D01*
X125452142Y-91317857D01*
X125380714Y-91460714D01*
X128023571Y-91532142D02*
X129166428Y-91532142D01*
X128595000Y-92103571D02*
X128595000Y-90960714D01*
X121023571Y-94082142D02*
X122166428Y-94082142D01*
X123952142Y-93296428D02*
X124023571Y-93225000D01*
X124166428Y-93153571D01*
X124523571Y-93153571D01*
X124666428Y-93225000D01*
X124737857Y-93296428D01*
X124809285Y-93439285D01*
X124809285Y-93582142D01*
X124737857Y-93796428D01*
X123880714Y-94653571D01*
X124809285Y-94653571D01*
X126166428Y-93153571D02*
X125452142Y-93153571D01*
X125380714Y-93867857D01*
X125452142Y-93796428D01*
X125595000Y-93725000D01*
X125952142Y-93725000D01*
X126095000Y-93796428D01*
X126166428Y-93867857D01*
X126237857Y-94010714D01*
X126237857Y-94367857D01*
X126166428Y-94510714D01*
X126095000Y-94582142D01*
X125952142Y-94653571D01*
X125595000Y-94653571D01*
X125452142Y-94582142D01*
X125380714Y-94510714D01*
X128023571Y-94082142D02*
X129166428Y-94082142D01*
X128595000Y-94653571D02*
X128595000Y-93510714D01*
X121023571Y-96632142D02*
X122166428Y-96632142D01*
X123952142Y-95846428D02*
X124023571Y-95775000D01*
X124166428Y-95703571D01*
X124523571Y-95703571D01*
X124666428Y-95775000D01*
X124737857Y-95846428D01*
X124809285Y-95989285D01*
X124809285Y-96132142D01*
X124737857Y-96346428D01*
X123880714Y-97203571D01*
X124809285Y-97203571D01*
X126095000Y-96203571D02*
X126095000Y-97203571D01*
X125737857Y-95632142D02*
X125380714Y-96703571D01*
X126309285Y-96703571D01*
X128023571Y-96632142D02*
X129166428Y-96632142D01*
X128595000Y-97203571D02*
X128595000Y-96060714D01*
X121023571Y-99182142D02*
X122166428Y-99182142D01*
X123952142Y-98396428D02*
X124023571Y-98325000D01*
X124166428Y-98253571D01*
X124523571Y-98253571D01*
X124666428Y-98325000D01*
X124737857Y-98396428D01*
X124809285Y-98539285D01*
X124809285Y-98682142D01*
X124737857Y-98896428D01*
X123880714Y-99753571D01*
X124809285Y-99753571D01*
X125309285Y-98253571D02*
X126237857Y-98253571D01*
X125737857Y-98825000D01*
X125952142Y-98825000D01*
X126095000Y-98896428D01*
X126166428Y-98967857D01*
X126237857Y-99110714D01*
X126237857Y-99467857D01*
X126166428Y-99610714D01*
X126095000Y-99682142D01*
X125952142Y-99753571D01*
X125523571Y-99753571D01*
X125380714Y-99682142D01*
X125309285Y-99610714D01*
X128023571Y-99182142D02*
X129166428Y-99182142D01*
X128595000Y-99753571D02*
X128595000Y-98610714D01*
X121023571Y-101732142D02*
X122166428Y-101732142D01*
X123952142Y-100946428D02*
X124023571Y-100875000D01*
X124166428Y-100803571D01*
X124523571Y-100803571D01*
X124666428Y-100875000D01*
X124737857Y-100946428D01*
X124809285Y-101089285D01*
X124809285Y-101232142D01*
X124737857Y-101446428D01*
X123880714Y-102303571D01*
X124809285Y-102303571D01*
X125380714Y-100946428D02*
X125452142Y-100875000D01*
X125595000Y-100803571D01*
X125952142Y-100803571D01*
X126095000Y-100875000D01*
X126166428Y-100946428D01*
X126237857Y-101089285D01*
X126237857Y-101232142D01*
X126166428Y-101446428D01*
X125309285Y-102303571D01*
X126237857Y-102303571D01*
X128023571Y-101732142D02*
X129166428Y-101732142D01*
X128595000Y-102303571D02*
X128595000Y-101160714D01*
X121023571Y-111837142D02*
X122166428Y-111837142D01*
X123952142Y-111051428D02*
X124023571Y-110980000D01*
X124166428Y-110908571D01*
X124523571Y-110908571D01*
X124666428Y-110980000D01*
X124737857Y-111051428D01*
X124809285Y-111194285D01*
X124809285Y-111337142D01*
X124737857Y-111551428D01*
X123880714Y-112408571D01*
X124809285Y-112408571D01*
X125737857Y-110908571D02*
X125880714Y-110908571D01*
X126023571Y-110980000D01*
X126095000Y-111051428D01*
X126166428Y-111194285D01*
X126237857Y-111480000D01*
X126237857Y-111837142D01*
X126166428Y-112122857D01*
X126095000Y-112265714D01*
X126023571Y-112337142D01*
X125880714Y-112408571D01*
X125737857Y-112408571D01*
X125595000Y-112337142D01*
X125523571Y-112265714D01*
X125452142Y-112122857D01*
X125380714Y-111837142D01*
X125380714Y-111480000D01*
X125452142Y-111194285D01*
X125523571Y-111051428D01*
X125595000Y-110980000D01*
X125737857Y-110908571D01*
X128023571Y-111837142D02*
X129166428Y-111837142D01*
X128595000Y-112408571D02*
X128595000Y-111265714D01*
X121023571Y-114387142D02*
X122166428Y-114387142D01*
X124809285Y-114958571D02*
X123952142Y-114958571D01*
X124380714Y-114958571D02*
X124380714Y-113458571D01*
X124237857Y-113672857D01*
X124095000Y-113815714D01*
X123952142Y-113887142D01*
X125523571Y-114958571D02*
X125809285Y-114958571D01*
X125952142Y-114887142D01*
X126023571Y-114815714D01*
X126166428Y-114601428D01*
X126237857Y-114315714D01*
X126237857Y-113744285D01*
X126166428Y-113601428D01*
X126095000Y-113530000D01*
X125952142Y-113458571D01*
X125666428Y-113458571D01*
X125523571Y-113530000D01*
X125452142Y-113601428D01*
X125380714Y-113744285D01*
X125380714Y-114101428D01*
X125452142Y-114244285D01*
X125523571Y-114315714D01*
X125666428Y-114387142D01*
X125952142Y-114387142D01*
X126095000Y-114315714D01*
X126166428Y-114244285D01*
X126237857Y-114101428D01*
X128023571Y-114387142D02*
X129166428Y-114387142D01*
X128595000Y-114958571D02*
X128595000Y-113815714D01*
X121023571Y-116937142D02*
X122166428Y-116937142D01*
X124809285Y-117508571D02*
X123952142Y-117508571D01*
X124380714Y-117508571D02*
X124380714Y-116008571D01*
X124237857Y-116222857D01*
X124095000Y-116365714D01*
X123952142Y-116437142D01*
X125666428Y-116651428D02*
X125523571Y-116580000D01*
X125452142Y-116508571D01*
X125380714Y-116365714D01*
X125380714Y-116294285D01*
X125452142Y-116151428D01*
X125523571Y-116080000D01*
X125666428Y-116008571D01*
X125952142Y-116008571D01*
X126095000Y-116080000D01*
X126166428Y-116151428D01*
X126237857Y-116294285D01*
X126237857Y-116365714D01*
X126166428Y-116508571D01*
X126095000Y-116580000D01*
X125952142Y-116651428D01*
X125666428Y-116651428D01*
X125523571Y-116722857D01*
X125452142Y-116794285D01*
X125380714Y-116937142D01*
X125380714Y-117222857D01*
X125452142Y-117365714D01*
X125523571Y-117437142D01*
X125666428Y-117508571D01*
X125952142Y-117508571D01*
X126095000Y-117437142D01*
X126166428Y-117365714D01*
X126237857Y-117222857D01*
X126237857Y-116937142D01*
X126166428Y-116794285D01*
X126095000Y-116722857D01*
X125952142Y-116651428D01*
X128023571Y-116937142D02*
X129166428Y-116937142D01*
X128595000Y-117508571D02*
X128595000Y-116365714D01*
X121023571Y-119487142D02*
X122166428Y-119487142D01*
X124809285Y-120058571D02*
X123952142Y-120058571D01*
X124380714Y-120058571D02*
X124380714Y-118558571D01*
X124237857Y-118772857D01*
X124095000Y-118915714D01*
X123952142Y-118987142D01*
X125309285Y-118558571D02*
X126309285Y-118558571D01*
X125666428Y-120058571D01*
X128023571Y-119487142D02*
X129166428Y-119487142D01*
X128595000Y-120058571D02*
X128595000Y-118915714D01*
X121023571Y-122037142D02*
X122166428Y-122037142D01*
X124809285Y-122608571D02*
X123952142Y-122608571D01*
X124380714Y-122608571D02*
X124380714Y-121108571D01*
X124237857Y-121322857D01*
X124095000Y-121465714D01*
X123952142Y-121537142D01*
X126095000Y-121108571D02*
X125809285Y-121108571D01*
X125666428Y-121180000D01*
X125595000Y-121251428D01*
X125452142Y-121465714D01*
X125380714Y-121751428D01*
X125380714Y-122322857D01*
X125452142Y-122465714D01*
X125523571Y-122537142D01*
X125666428Y-122608571D01*
X125952142Y-122608571D01*
X126095000Y-122537142D01*
X126166428Y-122465714D01*
X126237857Y-122322857D01*
X126237857Y-121965714D01*
X126166428Y-121822857D01*
X126095000Y-121751428D01*
X125952142Y-121680000D01*
X125666428Y-121680000D01*
X125523571Y-121751428D01*
X125452142Y-121822857D01*
X125380714Y-121965714D01*
X128023571Y-122037142D02*
X129166428Y-122037142D01*
X128595000Y-122608571D02*
X128595000Y-121465714D01*
X121023571Y-124587142D02*
X122166428Y-124587142D01*
X124809285Y-125158571D02*
X123952142Y-125158571D01*
X124380714Y-125158571D02*
X124380714Y-123658571D01*
X124237857Y-123872857D01*
X124095000Y-124015714D01*
X123952142Y-124087142D01*
X126166428Y-123658571D02*
X125452142Y-123658571D01*
X125380714Y-124372857D01*
X125452142Y-124301428D01*
X125595000Y-124230000D01*
X125952142Y-124230000D01*
X126095000Y-124301428D01*
X126166428Y-124372857D01*
X126237857Y-124515714D01*
X126237857Y-124872857D01*
X126166428Y-125015714D01*
X126095000Y-125087142D01*
X125952142Y-125158571D01*
X125595000Y-125158571D01*
X125452142Y-125087142D01*
X125380714Y-125015714D01*
X128023571Y-124587142D02*
X129166428Y-124587142D01*
X128595000Y-125158571D02*
X128595000Y-124015714D01*
X121023571Y-127137142D02*
X122166428Y-127137142D01*
X124809285Y-127708571D02*
X123952142Y-127708571D01*
X124380714Y-127708571D02*
X124380714Y-126208571D01*
X124237857Y-126422857D01*
X124095000Y-126565714D01*
X123952142Y-126637142D01*
X126095000Y-126708571D02*
X126095000Y-127708571D01*
X125737857Y-126137142D02*
X125380714Y-127208571D01*
X126309285Y-127208571D01*
X128023571Y-127137142D02*
X129166428Y-127137142D01*
X128595000Y-127708571D02*
X128595000Y-126565714D01*
X122162142Y-103390000D02*
X122019285Y-103318571D01*
X121805000Y-103318571D01*
X121590714Y-103390000D01*
X121447857Y-103532857D01*
X121376428Y-103675714D01*
X121305000Y-103961428D01*
X121305000Y-104175714D01*
X121376428Y-104461428D01*
X121447857Y-104604285D01*
X121590714Y-104747142D01*
X121805000Y-104818571D01*
X121947857Y-104818571D01*
X122162142Y-104747142D01*
X122233571Y-104675714D01*
X122233571Y-104175714D01*
X121947857Y-104175714D01*
X122876428Y-104818571D02*
X122876428Y-103318571D01*
X123733571Y-104818571D01*
X123733571Y-103318571D01*
X126852857Y-103390000D02*
X126710000Y-103318571D01*
X126495714Y-103318571D01*
X126281428Y-103390000D01*
X126138571Y-103532857D01*
X126067142Y-103675714D01*
X125995714Y-103961428D01*
X125995714Y-104175714D01*
X126067142Y-104461428D01*
X126138571Y-104604285D01*
X126281428Y-104747142D01*
X126495714Y-104818571D01*
X126638571Y-104818571D01*
X126852857Y-104747142D01*
X126924285Y-104675714D01*
X126924285Y-104175714D01*
X126638571Y-104175714D01*
X127567142Y-104818571D02*
X127567142Y-103318571D01*
X128138571Y-103318571D01*
X128281428Y-103390000D01*
X128352857Y-103461428D01*
X128424285Y-103604285D01*
X128424285Y-103818571D01*
X128352857Y-103961428D01*
X128281428Y-104032857D01*
X128138571Y-104104285D01*
X127567142Y-104104285D01*
X173398571Y-99611428D02*
X171898571Y-99611428D01*
X171898571Y-99254285D01*
X171970000Y-99040000D01*
X172112857Y-98897142D01*
X172255714Y-98825714D01*
X172541428Y-98754285D01*
X172755714Y-98754285D01*
X173041428Y-98825714D01*
X173184285Y-98897142D01*
X173327142Y-99040000D01*
X173398571Y-99254285D01*
X173398571Y-99611428D01*
X171827142Y-97040000D02*
X173755714Y-98325714D01*
X172970000Y-96611428D02*
X172970000Y-95897142D01*
X173398571Y-96754285D02*
X171898571Y-96254285D01*
X173398571Y-95754285D01*
X172970000Y-120002857D02*
X172970000Y-119288571D01*
X173398571Y-120145714D02*
X171898571Y-119645714D01*
X173398571Y-119145714D01*
X171827142Y-117574285D02*
X173755714Y-118860000D01*
X173398571Y-117074285D02*
X171898571Y-117074285D01*
X171898571Y-116717142D01*
X171970000Y-116502857D01*
X172112857Y-116360000D01*
X172255714Y-116288571D01*
X172541428Y-116217142D01*
X172755714Y-116217142D01*
X173041428Y-116288571D01*
X173184285Y-116360000D01*
X173327142Y-116502857D01*
X173398571Y-116717142D01*
X173398571Y-117074285D01*
X183217857Y-88013571D02*
X183717857Y-89513571D01*
X184217857Y-88013571D01*
X183289285Y-93113571D02*
X184289285Y-93113571D01*
X183646428Y-94613571D01*
X184146428Y-95663571D02*
X183432142Y-95663571D01*
X183360714Y-96377857D01*
X183432142Y-96306428D01*
X183575000Y-96235000D01*
X183932142Y-96235000D01*
X184075000Y-96306428D01*
X184146428Y-96377857D01*
X184217857Y-96520714D01*
X184217857Y-96877857D01*
X184146428Y-97020714D01*
X184075000Y-97092142D01*
X183932142Y-97163571D01*
X183575000Y-97163571D01*
X183432142Y-97092142D01*
X183360714Y-97020714D01*
X183289285Y-98213571D02*
X184217857Y-98213571D01*
X183717857Y-98785000D01*
X183932142Y-98785000D01*
X184075000Y-98856428D01*
X184146428Y-98927857D01*
X184217857Y-99070714D01*
X184217857Y-99427857D01*
X184146428Y-99570714D01*
X184075000Y-99642142D01*
X183932142Y-99713571D01*
X183503571Y-99713571D01*
X183360714Y-99642142D01*
X183289285Y-99570714D01*
X184217857Y-102263571D02*
X183360714Y-102263571D01*
X183789285Y-102263571D02*
X183789285Y-100763571D01*
X183646428Y-100977857D01*
X183503571Y-101120714D01*
X183360714Y-101192142D01*
X184217857Y-115013571D02*
X183360714Y-115013571D01*
X183789285Y-115013571D02*
X183789285Y-113513571D01*
X183646428Y-113727857D01*
X183503571Y-113870714D01*
X183360714Y-113942142D01*
X183289285Y-116063571D02*
X184217857Y-116063571D01*
X183717857Y-116635000D01*
X183932142Y-116635000D01*
X184075000Y-116706428D01*
X184146428Y-116777857D01*
X184217857Y-116920714D01*
X184217857Y-117277857D01*
X184146428Y-117420714D01*
X184075000Y-117492142D01*
X183932142Y-117563571D01*
X183503571Y-117563571D01*
X183360714Y-117492142D01*
X183289285Y-117420714D01*
X184146428Y-118613571D02*
X183432142Y-118613571D01*
X183360714Y-119327857D01*
X183432142Y-119256428D01*
X183575000Y-119185000D01*
X183932142Y-119185000D01*
X184075000Y-119256428D01*
X184146428Y-119327857D01*
X184217857Y-119470714D01*
X184217857Y-119827857D01*
X184146428Y-119970714D01*
X184075000Y-120042142D01*
X183932142Y-120113571D01*
X183575000Y-120113571D01*
X183432142Y-120042142D01*
X183360714Y-119970714D01*
X183289285Y-121163571D02*
X184289285Y-121163571D01*
X183646428Y-122663571D01*
X168612857Y-88013571D02*
X169112857Y-89513571D01*
X169612857Y-88013571D01*
X168684285Y-93113571D02*
X169684285Y-93113571D01*
X169041428Y-94613571D01*
X169541428Y-95663571D02*
X168827142Y-95663571D01*
X168755714Y-96377857D01*
X168827142Y-96306428D01*
X168970000Y-96235000D01*
X169327142Y-96235000D01*
X169470000Y-96306428D01*
X169541428Y-96377857D01*
X169612857Y-96520714D01*
X169612857Y-96877857D01*
X169541428Y-97020714D01*
X169470000Y-97092142D01*
X169327142Y-97163571D01*
X168970000Y-97163571D01*
X168827142Y-97092142D01*
X168755714Y-97020714D01*
X168684285Y-98213571D02*
X169612857Y-98213571D01*
X169112857Y-98785000D01*
X169327142Y-98785000D01*
X169470000Y-98856428D01*
X169541428Y-98927857D01*
X169612857Y-99070714D01*
X169612857Y-99427857D01*
X169541428Y-99570714D01*
X169470000Y-99642142D01*
X169327142Y-99713571D01*
X168898571Y-99713571D01*
X168755714Y-99642142D01*
X168684285Y-99570714D01*
X169612857Y-102263571D02*
X168755714Y-102263571D01*
X169184285Y-102263571D02*
X169184285Y-100763571D01*
X169041428Y-100977857D01*
X168898571Y-101120714D01*
X168755714Y-101192142D01*
X169612857Y-115013571D02*
X168755714Y-115013571D01*
X169184285Y-115013571D02*
X169184285Y-113513571D01*
X169041428Y-113727857D01*
X168898571Y-113870714D01*
X168755714Y-113942142D01*
X168684285Y-116063571D02*
X169612857Y-116063571D01*
X169112857Y-116635000D01*
X169327142Y-116635000D01*
X169470000Y-116706428D01*
X169541428Y-116777857D01*
X169612857Y-116920714D01*
X169612857Y-117277857D01*
X169541428Y-117420714D01*
X169470000Y-117492142D01*
X169327142Y-117563571D01*
X168898571Y-117563571D01*
X168755714Y-117492142D01*
X168684285Y-117420714D01*
X169541428Y-118613571D02*
X168827142Y-118613571D01*
X168755714Y-119327857D01*
X168827142Y-119256428D01*
X168970000Y-119185000D01*
X169327142Y-119185000D01*
X169470000Y-119256428D01*
X169541428Y-119327857D01*
X169612857Y-119470714D01*
X169612857Y-119827857D01*
X169541428Y-119970714D01*
X169470000Y-120042142D01*
X169327142Y-120113571D01*
X168970000Y-120113571D01*
X168827142Y-120042142D01*
X168755714Y-119970714D01*
X168684285Y-121163571D02*
X169684285Y-121163571D01*
X169041428Y-122663571D01*
X177247857Y-88080000D02*
X177105000Y-88008571D01*
X176890714Y-88008571D01*
X176676428Y-88080000D01*
X176533571Y-88222857D01*
X176462142Y-88365714D01*
X176390714Y-88651428D01*
X176390714Y-88865714D01*
X176462142Y-89151428D01*
X176533571Y-89294285D01*
X176676428Y-89437142D01*
X176890714Y-89508571D01*
X177033571Y-89508571D01*
X177247857Y-89437142D01*
X177319285Y-89365714D01*
X177319285Y-88865714D01*
X177033571Y-88865714D01*
X176462142Y-94608571D02*
X176462142Y-93108571D01*
X177319285Y-94608571D02*
X176676428Y-93751428D01*
X177319285Y-93108571D02*
X176462142Y-93965714D01*
X177176428Y-95658571D02*
X176890714Y-95658571D01*
X176747857Y-95730000D01*
X176676428Y-95801428D01*
X176533571Y-96015714D01*
X176462142Y-96301428D01*
X176462142Y-96872857D01*
X176533571Y-97015714D01*
X176605000Y-97087142D01*
X176747857Y-97158571D01*
X177033571Y-97158571D01*
X177176428Y-97087142D01*
X177247857Y-97015714D01*
X177319285Y-96872857D01*
X177319285Y-96515714D01*
X177247857Y-96372857D01*
X177176428Y-96301428D01*
X177033571Y-96230000D01*
X176747857Y-96230000D01*
X176605000Y-96301428D01*
X176533571Y-96372857D01*
X176462142Y-96515714D01*
X177176428Y-98708571D02*
X177176428Y-99708571D01*
X176819285Y-98137142D02*
X176462142Y-99208571D01*
X177390714Y-99208571D01*
X176462142Y-100901428D02*
X176533571Y-100830000D01*
X176676428Y-100758571D01*
X177033571Y-100758571D01*
X177176428Y-100830000D01*
X177247857Y-100901428D01*
X177319285Y-101044285D01*
X177319285Y-101187142D01*
X177247857Y-101401428D01*
X176390714Y-102258571D01*
X177319285Y-102258571D01*
X176819285Y-103308571D02*
X176962142Y-103308571D01*
X177105000Y-103380000D01*
X177176428Y-103451428D01*
X177247857Y-103594285D01*
X177319285Y-103880000D01*
X177319285Y-104237142D01*
X177247857Y-104522857D01*
X177176428Y-104665714D01*
X177105000Y-104737142D01*
X176962142Y-104808571D01*
X176819285Y-104808571D01*
X176676428Y-104737142D01*
X176605000Y-104665714D01*
X176533571Y-104522857D01*
X176462142Y-104237142D01*
X176462142Y-103880000D01*
X176533571Y-103594285D01*
X176605000Y-103451428D01*
X176676428Y-103380000D01*
X176819285Y-103308571D01*
X176819285Y-113508571D02*
X176962142Y-113508571D01*
X177105000Y-113580000D01*
X177176428Y-113651428D01*
X177247857Y-113794285D01*
X177319285Y-114080000D01*
X177319285Y-114437142D01*
X177247857Y-114722857D01*
X177176428Y-114865714D01*
X177105000Y-114937142D01*
X176962142Y-115008571D01*
X176819285Y-115008571D01*
X176676428Y-114937142D01*
X176605000Y-114865714D01*
X176533571Y-114722857D01*
X176462142Y-114437142D01*
X176462142Y-114080000D01*
X176533571Y-113794285D01*
X176605000Y-113651428D01*
X176676428Y-113580000D01*
X176819285Y-113508571D01*
X176462142Y-116201428D02*
X176533571Y-116130000D01*
X176676428Y-116058571D01*
X177033571Y-116058571D01*
X177176428Y-116130000D01*
X177247857Y-116201428D01*
X177319285Y-116344285D01*
X177319285Y-116487142D01*
X177247857Y-116701428D01*
X176390714Y-117558571D01*
X177319285Y-117558571D01*
X177176428Y-119108571D02*
X177176428Y-120108571D01*
X176819285Y-118537142D02*
X176462142Y-119608571D01*
X177390714Y-119608571D01*
X177176428Y-121158571D02*
X176890714Y-121158571D01*
X176747857Y-121230000D01*
X176676428Y-121301428D01*
X176533571Y-121515714D01*
X176462142Y-121801428D01*
X176462142Y-122372857D01*
X176533571Y-122515714D01*
X176605000Y-122587142D01*
X176747857Y-122658571D01*
X177033571Y-122658571D01*
X177176428Y-122587142D01*
X177247857Y-122515714D01*
X177319285Y-122372857D01*
X177319285Y-122015714D01*
X177247857Y-121872857D01*
X177176428Y-121801428D01*
X177033571Y-121730000D01*
X176747857Y-121730000D01*
X176605000Y-121801428D01*
X176533571Y-121872857D01*
X176462142Y-122015714D01*
X176462142Y-125208571D02*
X176462142Y-123708571D01*
X177319285Y-125208571D02*
X176676428Y-124351428D01*
X177319285Y-123708571D02*
X176462142Y-124565714D01*
X162007857Y-88080000D02*
X161865000Y-88008571D01*
X161650714Y-88008571D01*
X161436428Y-88080000D01*
X161293571Y-88222857D01*
X161222142Y-88365714D01*
X161150714Y-88651428D01*
X161150714Y-88865714D01*
X161222142Y-89151428D01*
X161293571Y-89294285D01*
X161436428Y-89437142D01*
X161650714Y-89508571D01*
X161793571Y-89508571D01*
X162007857Y-89437142D01*
X162079285Y-89365714D01*
X162079285Y-88865714D01*
X161793571Y-88865714D01*
X161222142Y-94608571D02*
X161222142Y-93108571D01*
X162079285Y-94608571D02*
X161436428Y-93751428D01*
X162079285Y-93108571D02*
X161222142Y-93965714D01*
X161936428Y-95658571D02*
X161650714Y-95658571D01*
X161507857Y-95730000D01*
X161436428Y-95801428D01*
X161293571Y-96015714D01*
X161222142Y-96301428D01*
X161222142Y-96872857D01*
X161293571Y-97015714D01*
X161365000Y-97087142D01*
X161507857Y-97158571D01*
X161793571Y-97158571D01*
X161936428Y-97087142D01*
X162007857Y-97015714D01*
X162079285Y-96872857D01*
X162079285Y-96515714D01*
X162007857Y-96372857D01*
X161936428Y-96301428D01*
X161793571Y-96230000D01*
X161507857Y-96230000D01*
X161365000Y-96301428D01*
X161293571Y-96372857D01*
X161222142Y-96515714D01*
X161936428Y-98708571D02*
X161936428Y-99708571D01*
X161579285Y-98137142D02*
X161222142Y-99208571D01*
X162150714Y-99208571D01*
X161222142Y-100901428D02*
X161293571Y-100830000D01*
X161436428Y-100758571D01*
X161793571Y-100758571D01*
X161936428Y-100830000D01*
X162007857Y-100901428D01*
X162079285Y-101044285D01*
X162079285Y-101187142D01*
X162007857Y-101401428D01*
X161150714Y-102258571D01*
X162079285Y-102258571D01*
X161579285Y-103308571D02*
X161722142Y-103308571D01*
X161865000Y-103380000D01*
X161936428Y-103451428D01*
X162007857Y-103594285D01*
X162079285Y-103880000D01*
X162079285Y-104237142D01*
X162007857Y-104522857D01*
X161936428Y-104665714D01*
X161865000Y-104737142D01*
X161722142Y-104808571D01*
X161579285Y-104808571D01*
X161436428Y-104737142D01*
X161365000Y-104665714D01*
X161293571Y-104522857D01*
X161222142Y-104237142D01*
X161222142Y-103880000D01*
X161293571Y-103594285D01*
X161365000Y-103451428D01*
X161436428Y-103380000D01*
X161579285Y-103308571D01*
X161579285Y-113508571D02*
X161722142Y-113508571D01*
X161865000Y-113580000D01*
X161936428Y-113651428D01*
X162007857Y-113794285D01*
X162079285Y-114080000D01*
X162079285Y-114437142D01*
X162007857Y-114722857D01*
X161936428Y-114865714D01*
X161865000Y-114937142D01*
X161722142Y-115008571D01*
X161579285Y-115008571D01*
X161436428Y-114937142D01*
X161365000Y-114865714D01*
X161293571Y-114722857D01*
X161222142Y-114437142D01*
X161222142Y-114080000D01*
X161293571Y-113794285D01*
X161365000Y-113651428D01*
X161436428Y-113580000D01*
X161579285Y-113508571D01*
X161222142Y-116201428D02*
X161293571Y-116130000D01*
X161436428Y-116058571D01*
X161793571Y-116058571D01*
X161936428Y-116130000D01*
X162007857Y-116201428D01*
X162079285Y-116344285D01*
X162079285Y-116487142D01*
X162007857Y-116701428D01*
X161150714Y-117558571D01*
X162079285Y-117558571D01*
X161936428Y-119108571D02*
X161936428Y-120108571D01*
X161579285Y-118537142D02*
X161222142Y-119608571D01*
X162150714Y-119608571D01*
X161936428Y-121158571D02*
X161650714Y-121158571D01*
X161507857Y-121230000D01*
X161436428Y-121301428D01*
X161293571Y-121515714D01*
X161222142Y-121801428D01*
X161222142Y-122372857D01*
X161293571Y-122515714D01*
X161365000Y-122587142D01*
X161507857Y-122658571D01*
X161793571Y-122658571D01*
X161936428Y-122587142D01*
X162007857Y-122515714D01*
X162079285Y-122372857D01*
X162079285Y-122015714D01*
X162007857Y-121872857D01*
X161936428Y-121801428D01*
X161793571Y-121730000D01*
X161507857Y-121730000D01*
X161365000Y-121801428D01*
X161293571Y-121872857D01*
X161222142Y-122015714D01*
X161222142Y-125208571D02*
X161222142Y-123708571D01*
X162079285Y-125208571D02*
X161436428Y-124351428D01*
X162079285Y-123708571D02*
X161222142Y-124565714D01*
X123317142Y-105925000D02*
X123174285Y-105853571D01*
X122960000Y-105853571D01*
X122745714Y-105925000D01*
X122602857Y-106067857D01*
X122531428Y-106210714D01*
X122460000Y-106496428D01*
X122460000Y-106710714D01*
X122531428Y-106996428D01*
X122602857Y-107139285D01*
X122745714Y-107282142D01*
X122960000Y-107353571D01*
X123102857Y-107353571D01*
X123317142Y-107282142D01*
X123388571Y-107210714D01*
X123388571Y-106710714D01*
X123102857Y-106710714D01*
X124031428Y-107353571D02*
X124031428Y-105853571D01*
X124888571Y-107353571D01*
X124888571Y-105853571D01*
X125602857Y-107353571D02*
X125602857Y-105853571D01*
X125960000Y-105853571D01*
X126174285Y-105925000D01*
X126317142Y-106067857D01*
X126388571Y-106210714D01*
X126460000Y-106496428D01*
X126460000Y-106710714D01*
X126388571Y-106996428D01*
X126317142Y-107139285D01*
X126174285Y-107282142D01*
X125960000Y-107353571D01*
X125602857Y-107353571D01*
X122602857Y-108403571D02*
X123531428Y-108403571D01*
X123031428Y-108975000D01*
X123245714Y-108975000D01*
X123388571Y-109046428D01*
X123460000Y-109117857D01*
X123531428Y-109260714D01*
X123531428Y-109617857D01*
X123460000Y-109760714D01*
X123388571Y-109832142D01*
X123245714Y-109903571D01*
X122817142Y-109903571D01*
X122674285Y-109832142D01*
X122602857Y-109760714D01*
X123960000Y-108403571D02*
X124460000Y-109903571D01*
X124960000Y-108403571D01*
X125317142Y-108403571D02*
X126245714Y-108403571D01*
X125745714Y-108975000D01*
X125960000Y-108975000D01*
X126102857Y-109046428D01*
X126174285Y-109117857D01*
X126245714Y-109260714D01*
X126245714Y-109617857D01*
X126174285Y-109760714D01*
X126102857Y-109832142D01*
X125960000Y-109903571D01*
X125531428Y-109903571D01*
X125388571Y-109832142D01*
X125317142Y-109760714D01*
X136017142Y-128785000D02*
X135874285Y-128713571D01*
X135660000Y-128713571D01*
X135445714Y-128785000D01*
X135302857Y-128927857D01*
X135231428Y-129070714D01*
X135160000Y-129356428D01*
X135160000Y-129570714D01*
X135231428Y-129856428D01*
X135302857Y-129999285D01*
X135445714Y-130142142D01*
X135660000Y-130213571D01*
X135802857Y-130213571D01*
X136017142Y-130142142D01*
X136088571Y-130070714D01*
X136088571Y-129570714D01*
X135802857Y-129570714D01*
X136731428Y-130213571D02*
X136731428Y-128713571D01*
X137588571Y-130213571D01*
X137588571Y-128713571D01*
X138302857Y-130213571D02*
X138302857Y-128713571D01*
X138660000Y-128713571D01*
X138874285Y-128785000D01*
X139017142Y-128927857D01*
X139088571Y-129070714D01*
X139160000Y-129356428D01*
X139160000Y-129570714D01*
X139088571Y-129856428D01*
X139017142Y-129999285D01*
X138874285Y-130142142D01*
X138660000Y-130213571D01*
X138302857Y-130213571D01*
X135302857Y-131263571D02*
X136231428Y-131263571D01*
X135731428Y-131835000D01*
X135945714Y-131835000D01*
X136088571Y-131906428D01*
X136160000Y-131977857D01*
X136231428Y-132120714D01*
X136231428Y-132477857D01*
X136160000Y-132620714D01*
X136088571Y-132692142D01*
X135945714Y-132763571D01*
X135517142Y-132763571D01*
X135374285Y-132692142D01*
X135302857Y-132620714D01*
X136660000Y-131263571D02*
X137160000Y-132763571D01*
X137660000Y-131263571D01*
X138017142Y-131263571D02*
X138945714Y-131263571D01*
X138445714Y-131835000D01*
X138660000Y-131835000D01*
X138802857Y-131906428D01*
X138874285Y-131977857D01*
X138945714Y-132120714D01*
X138945714Y-132477857D01*
X138874285Y-132620714D01*
X138802857Y-132692142D01*
X138660000Y-132763571D01*
X138231428Y-132763571D01*
X138088571Y-132692142D01*
X138017142Y-132620714D01*
X136017142Y-105925000D02*
X135874285Y-105853571D01*
X135660000Y-105853571D01*
X135445714Y-105925000D01*
X135302857Y-106067857D01*
X135231428Y-106210714D01*
X135160000Y-106496428D01*
X135160000Y-106710714D01*
X135231428Y-106996428D01*
X135302857Y-107139285D01*
X135445714Y-107282142D01*
X135660000Y-107353571D01*
X135802857Y-107353571D01*
X136017142Y-107282142D01*
X136088571Y-107210714D01*
X136088571Y-106710714D01*
X135802857Y-106710714D01*
X136731428Y-107353571D02*
X136731428Y-105853571D01*
X137588571Y-107353571D01*
X137588571Y-105853571D01*
X138302857Y-107353571D02*
X138302857Y-105853571D01*
X138660000Y-105853571D01*
X138874285Y-105925000D01*
X139017142Y-106067857D01*
X139088571Y-106210714D01*
X139160000Y-106496428D01*
X139160000Y-106710714D01*
X139088571Y-106996428D01*
X139017142Y-107139285D01*
X138874285Y-107282142D01*
X138660000Y-107353571D01*
X138302857Y-107353571D01*
X135302857Y-108403571D02*
X136231428Y-108403571D01*
X135731428Y-108975000D01*
X135945714Y-108975000D01*
X136088571Y-109046428D01*
X136160000Y-109117857D01*
X136231428Y-109260714D01*
X136231428Y-109617857D01*
X136160000Y-109760714D01*
X136088571Y-109832142D01*
X135945714Y-109903571D01*
X135517142Y-109903571D01*
X135374285Y-109832142D01*
X135302857Y-109760714D01*
X136660000Y-108403571D02*
X137160000Y-109903571D01*
X137660000Y-108403571D01*
X138017142Y-108403571D02*
X138945714Y-108403571D01*
X138445714Y-108975000D01*
X138660000Y-108975000D01*
X138802857Y-109046428D01*
X138874285Y-109117857D01*
X138945714Y-109260714D01*
X138945714Y-109617857D01*
X138874285Y-109760714D01*
X138802857Y-109832142D01*
X138660000Y-109903571D01*
X138231428Y-109903571D01*
X138088571Y-109832142D01*
X138017142Y-109760714D01*
X135382142Y-111051428D02*
X135453571Y-110980000D01*
X135596428Y-110908571D01*
X135953571Y-110908571D01*
X136096428Y-110980000D01*
X136167857Y-111051428D01*
X136239285Y-111194285D01*
X136239285Y-111337142D01*
X136167857Y-111551428D01*
X135310714Y-112408571D01*
X136239285Y-112408571D01*
X137167857Y-110908571D02*
X137310714Y-110908571D01*
X137453571Y-110980000D01*
X137525000Y-111051428D01*
X137596428Y-111194285D01*
X137667857Y-111480000D01*
X137667857Y-111837142D01*
X137596428Y-112122857D01*
X137525000Y-112265714D01*
X137453571Y-112337142D01*
X137310714Y-112408571D01*
X137167857Y-112408571D01*
X137025000Y-112337142D01*
X136953571Y-112265714D01*
X136882142Y-112122857D01*
X136810714Y-111837142D01*
X136810714Y-111480000D01*
X136882142Y-111194285D01*
X136953571Y-111051428D01*
X137025000Y-110980000D01*
X137167857Y-110908571D01*
X136239285Y-114958571D02*
X135382142Y-114958571D01*
X135810714Y-114958571D02*
X135810714Y-113458571D01*
X135667857Y-113672857D01*
X135525000Y-113815714D01*
X135382142Y-113887142D01*
X136953571Y-114958571D02*
X137239285Y-114958571D01*
X137382142Y-114887142D01*
X137453571Y-114815714D01*
X137596428Y-114601428D01*
X137667857Y-114315714D01*
X137667857Y-113744285D01*
X137596428Y-113601428D01*
X137525000Y-113530000D01*
X137382142Y-113458571D01*
X137096428Y-113458571D01*
X136953571Y-113530000D01*
X136882142Y-113601428D01*
X136810714Y-113744285D01*
X136810714Y-114101428D01*
X136882142Y-114244285D01*
X136953571Y-114315714D01*
X137096428Y-114387142D01*
X137382142Y-114387142D01*
X137525000Y-114315714D01*
X137596428Y-114244285D01*
X137667857Y-114101428D01*
X136239285Y-117508571D02*
X135382142Y-117508571D01*
X135810714Y-117508571D02*
X135810714Y-116008571D01*
X135667857Y-116222857D01*
X135525000Y-116365714D01*
X135382142Y-116437142D01*
X137096428Y-116651428D02*
X136953571Y-116580000D01*
X136882142Y-116508571D01*
X136810714Y-116365714D01*
X136810714Y-116294285D01*
X136882142Y-116151428D01*
X136953571Y-116080000D01*
X137096428Y-116008571D01*
X137382142Y-116008571D01*
X137525000Y-116080000D01*
X137596428Y-116151428D01*
X137667857Y-116294285D01*
X137667857Y-116365714D01*
X137596428Y-116508571D01*
X137525000Y-116580000D01*
X137382142Y-116651428D01*
X137096428Y-116651428D01*
X136953571Y-116722857D01*
X136882142Y-116794285D01*
X136810714Y-116937142D01*
X136810714Y-117222857D01*
X136882142Y-117365714D01*
X136953571Y-117437142D01*
X137096428Y-117508571D01*
X137382142Y-117508571D01*
X137525000Y-117437142D01*
X137596428Y-117365714D01*
X137667857Y-117222857D01*
X137667857Y-116937142D01*
X137596428Y-116794285D01*
X137525000Y-116722857D01*
X137382142Y-116651428D01*
X136239285Y-120058571D02*
X135382142Y-120058571D01*
X135810714Y-120058571D02*
X135810714Y-118558571D01*
X135667857Y-118772857D01*
X135525000Y-118915714D01*
X135382142Y-118987142D01*
X136739285Y-118558571D02*
X137739285Y-118558571D01*
X137096428Y-120058571D01*
X136239285Y-122608571D02*
X135382142Y-122608571D01*
X135810714Y-122608571D02*
X135810714Y-121108571D01*
X135667857Y-121322857D01*
X135525000Y-121465714D01*
X135382142Y-121537142D01*
X137525000Y-121108571D02*
X137239285Y-121108571D01*
X137096428Y-121180000D01*
X137025000Y-121251428D01*
X136882142Y-121465714D01*
X136810714Y-121751428D01*
X136810714Y-122322857D01*
X136882142Y-122465714D01*
X136953571Y-122537142D01*
X137096428Y-122608571D01*
X137382142Y-122608571D01*
X137525000Y-122537142D01*
X137596428Y-122465714D01*
X137667857Y-122322857D01*
X137667857Y-121965714D01*
X137596428Y-121822857D01*
X137525000Y-121751428D01*
X137382142Y-121680000D01*
X137096428Y-121680000D01*
X136953571Y-121751428D01*
X136882142Y-121822857D01*
X136810714Y-121965714D01*
X136239285Y-125158571D02*
X135382142Y-125158571D01*
X135810714Y-125158571D02*
X135810714Y-123658571D01*
X135667857Y-123872857D01*
X135525000Y-124015714D01*
X135382142Y-124087142D01*
X137596428Y-123658571D02*
X136882142Y-123658571D01*
X136810714Y-124372857D01*
X136882142Y-124301428D01*
X137025000Y-124230000D01*
X137382142Y-124230000D01*
X137525000Y-124301428D01*
X137596428Y-124372857D01*
X137667857Y-124515714D01*
X137667857Y-124872857D01*
X137596428Y-125015714D01*
X137525000Y-125087142D01*
X137382142Y-125158571D01*
X137025000Y-125158571D01*
X136882142Y-125087142D01*
X136810714Y-125015714D01*
X136239285Y-127708571D02*
X135382142Y-127708571D01*
X135810714Y-127708571D02*
X135810714Y-126208571D01*
X135667857Y-126422857D01*
X135525000Y-126565714D01*
X135382142Y-126637142D01*
X137525000Y-126708571D02*
X137525000Y-127708571D01*
X137167857Y-126137142D02*
X136810714Y-127208571D01*
X137739285Y-127208571D01*
X135382142Y-88191428D02*
X135453571Y-88120000D01*
X135596428Y-88048571D01*
X135953571Y-88048571D01*
X136096428Y-88120000D01*
X136167857Y-88191428D01*
X136239285Y-88334285D01*
X136239285Y-88477142D01*
X136167857Y-88691428D01*
X135310714Y-89548571D01*
X136239285Y-89548571D01*
X136739285Y-88048571D02*
X137739285Y-88048571D01*
X137096428Y-89548571D01*
X135382142Y-90741428D02*
X135453571Y-90670000D01*
X135596428Y-90598571D01*
X135953571Y-90598571D01*
X136096428Y-90670000D01*
X136167857Y-90741428D01*
X136239285Y-90884285D01*
X136239285Y-91027142D01*
X136167857Y-91241428D01*
X135310714Y-92098571D01*
X136239285Y-92098571D01*
X137525000Y-90598571D02*
X137239285Y-90598571D01*
X137096428Y-90670000D01*
X137025000Y-90741428D01*
X136882142Y-90955714D01*
X136810714Y-91241428D01*
X136810714Y-91812857D01*
X136882142Y-91955714D01*
X136953571Y-92027142D01*
X137096428Y-92098571D01*
X137382142Y-92098571D01*
X137525000Y-92027142D01*
X137596428Y-91955714D01*
X137667857Y-91812857D01*
X137667857Y-91455714D01*
X137596428Y-91312857D01*
X137525000Y-91241428D01*
X137382142Y-91170000D01*
X137096428Y-91170000D01*
X136953571Y-91241428D01*
X136882142Y-91312857D01*
X136810714Y-91455714D01*
X135382142Y-93291428D02*
X135453571Y-93220000D01*
X135596428Y-93148571D01*
X135953571Y-93148571D01*
X136096428Y-93220000D01*
X136167857Y-93291428D01*
X136239285Y-93434285D01*
X136239285Y-93577142D01*
X136167857Y-93791428D01*
X135310714Y-94648571D01*
X136239285Y-94648571D01*
X137596428Y-93148571D02*
X136882142Y-93148571D01*
X136810714Y-93862857D01*
X136882142Y-93791428D01*
X137025000Y-93720000D01*
X137382142Y-93720000D01*
X137525000Y-93791428D01*
X137596428Y-93862857D01*
X137667857Y-94005714D01*
X137667857Y-94362857D01*
X137596428Y-94505714D01*
X137525000Y-94577142D01*
X137382142Y-94648571D01*
X137025000Y-94648571D01*
X136882142Y-94577142D01*
X136810714Y-94505714D01*
X135382142Y-95841428D02*
X135453571Y-95770000D01*
X135596428Y-95698571D01*
X135953571Y-95698571D01*
X136096428Y-95770000D01*
X136167857Y-95841428D01*
X136239285Y-95984285D01*
X136239285Y-96127142D01*
X136167857Y-96341428D01*
X135310714Y-97198571D01*
X136239285Y-97198571D01*
X137525000Y-96198571D02*
X137525000Y-97198571D01*
X137167857Y-95627142D02*
X136810714Y-96698571D01*
X137739285Y-96698571D01*
X135382142Y-98391428D02*
X135453571Y-98320000D01*
X135596428Y-98248571D01*
X135953571Y-98248571D01*
X136096428Y-98320000D01*
X136167857Y-98391428D01*
X136239285Y-98534285D01*
X136239285Y-98677142D01*
X136167857Y-98891428D01*
X135310714Y-99748571D01*
X136239285Y-99748571D01*
X136739285Y-98248571D02*
X137667857Y-98248571D01*
X137167857Y-98820000D01*
X137382142Y-98820000D01*
X137525000Y-98891428D01*
X137596428Y-98962857D01*
X137667857Y-99105714D01*
X137667857Y-99462857D01*
X137596428Y-99605714D01*
X137525000Y-99677142D01*
X137382142Y-99748571D01*
X136953571Y-99748571D01*
X136810714Y-99677142D01*
X136739285Y-99605714D01*
X135382142Y-100941428D02*
X135453571Y-100870000D01*
X135596428Y-100798571D01*
X135953571Y-100798571D01*
X136096428Y-100870000D01*
X136167857Y-100941428D01*
X136239285Y-101084285D01*
X136239285Y-101227142D01*
X136167857Y-101441428D01*
X135310714Y-102298571D01*
X136239285Y-102298571D01*
X136810714Y-100941428D02*
X136882142Y-100870000D01*
X137025000Y-100798571D01*
X137382142Y-100798571D01*
X137525000Y-100870000D01*
X137596428Y-100941428D01*
X137667857Y-101084285D01*
X137667857Y-101227142D01*
X137596428Y-101441428D01*
X136739285Y-102298571D01*
X137667857Y-102298571D01*
X135382142Y-103491428D02*
X135453571Y-103420000D01*
X135596428Y-103348571D01*
X135953571Y-103348571D01*
X136096428Y-103420000D01*
X136167857Y-103491428D01*
X136239285Y-103634285D01*
X136239285Y-103777142D01*
X136167857Y-103991428D01*
X135310714Y-104848571D01*
X136239285Y-104848571D01*
X137667857Y-104848571D02*
X136810714Y-104848571D01*
X137239285Y-104848571D02*
X137239285Y-103348571D01*
X137096428Y-103562857D01*
X136953571Y-103705714D01*
X136810714Y-103777142D01*
X142367142Y-131330000D02*
X142224285Y-131258571D01*
X142010000Y-131258571D01*
X141795714Y-131330000D01*
X141652857Y-131472857D01*
X141581428Y-131615714D01*
X141510000Y-131901428D01*
X141510000Y-132115714D01*
X141581428Y-132401428D01*
X141652857Y-132544285D01*
X141795714Y-132687142D01*
X142010000Y-132758571D01*
X142152857Y-132758571D01*
X142367142Y-132687142D01*
X142438571Y-132615714D01*
X142438571Y-132115714D01*
X142152857Y-132115714D01*
X143081428Y-132758571D02*
X143081428Y-131258571D01*
X143938571Y-132758571D01*
X143938571Y-131258571D01*
X144652857Y-132758571D02*
X144652857Y-131258571D01*
X145010000Y-131258571D01*
X145224285Y-131330000D01*
X145367142Y-131472857D01*
X145438571Y-131615714D01*
X145510000Y-131901428D01*
X145510000Y-132115714D01*
X145438571Y-132401428D01*
X145367142Y-132544285D01*
X145224285Y-132687142D01*
X145010000Y-132758571D01*
X144652857Y-132758571D01*
X141069285Y-110975000D02*
X140926428Y-110903571D01*
X140712142Y-110903571D01*
X140497857Y-110975000D01*
X140355000Y-111117857D01*
X140283571Y-111260714D01*
X140212142Y-111546428D01*
X140212142Y-111760714D01*
X140283571Y-112046428D01*
X140355000Y-112189285D01*
X140497857Y-112332142D01*
X140712142Y-112403571D01*
X140855000Y-112403571D01*
X141069285Y-112332142D01*
X141140714Y-112260714D01*
X141140714Y-111760714D01*
X140855000Y-111760714D01*
X141783571Y-112403571D02*
X141783571Y-110903571D01*
X142640714Y-112403571D01*
X142640714Y-110903571D01*
X144140714Y-112403571D02*
X143283571Y-112403571D01*
X143712142Y-112403571D02*
X143712142Y-110903571D01*
X143569285Y-111117857D01*
X143426428Y-111260714D01*
X143283571Y-111332142D01*
X144855000Y-112403571D02*
X145140714Y-112403571D01*
X145283571Y-112332142D01*
X145355000Y-112260714D01*
X145497857Y-112046428D01*
X145569285Y-111760714D01*
X145569285Y-111189285D01*
X145497857Y-111046428D01*
X145426428Y-110975000D01*
X145283571Y-110903571D01*
X144997857Y-110903571D01*
X144855000Y-110975000D01*
X144783571Y-111046428D01*
X144712142Y-111189285D01*
X144712142Y-111546428D01*
X144783571Y-111689285D01*
X144855000Y-111760714D01*
X144997857Y-111832142D01*
X145283571Y-111832142D01*
X145426428Y-111760714D01*
X145497857Y-111689285D01*
X145569285Y-111546428D01*
X141140714Y-113525000D02*
X140997857Y-113453571D01*
X140783571Y-113453571D01*
X140569285Y-113525000D01*
X140426428Y-113667857D01*
X140355000Y-113810714D01*
X140283571Y-114096428D01*
X140283571Y-114310714D01*
X140355000Y-114596428D01*
X140426428Y-114739285D01*
X140569285Y-114882142D01*
X140783571Y-114953571D01*
X140926428Y-114953571D01*
X141140714Y-114882142D01*
X141212142Y-114810714D01*
X141212142Y-114310714D01*
X140926428Y-114310714D01*
X141855000Y-114953571D02*
X141855000Y-113453571D01*
X142426428Y-113453571D01*
X142569285Y-113525000D01*
X142640714Y-113596428D01*
X142712142Y-113739285D01*
X142712142Y-113953571D01*
X142640714Y-114096428D01*
X142569285Y-114167857D01*
X142426428Y-114239285D01*
X141855000Y-114239285D01*
X144140714Y-114953571D02*
X143283571Y-114953571D01*
X143712142Y-114953571D02*
X143712142Y-113453571D01*
X143569285Y-113667857D01*
X143426428Y-113810714D01*
X143283571Y-113882142D01*
X144997857Y-114096428D02*
X144855000Y-114025000D01*
X144783571Y-113953571D01*
X144712142Y-113810714D01*
X144712142Y-113739285D01*
X144783571Y-113596428D01*
X144855000Y-113525000D01*
X144997857Y-113453571D01*
X145283571Y-113453571D01*
X145426428Y-113525000D01*
X145497857Y-113596428D01*
X145569285Y-113739285D01*
X145569285Y-113810714D01*
X145497857Y-113953571D01*
X145426428Y-114025000D01*
X145283571Y-114096428D01*
X144997857Y-114096428D01*
X144855000Y-114167857D01*
X144783571Y-114239285D01*
X144712142Y-114382142D01*
X144712142Y-114667857D01*
X144783571Y-114810714D01*
X144855000Y-114882142D01*
X144997857Y-114953571D01*
X145283571Y-114953571D01*
X145426428Y-114882142D01*
X145497857Y-114810714D01*
X145569285Y-114667857D01*
X145569285Y-114382142D01*
X145497857Y-114239285D01*
X145426428Y-114167857D01*
X145283571Y-114096428D01*
X141069285Y-116075000D02*
X140926428Y-116003571D01*
X140712142Y-116003571D01*
X140497857Y-116075000D01*
X140355000Y-116217857D01*
X140283571Y-116360714D01*
X140212142Y-116646428D01*
X140212142Y-116860714D01*
X140283571Y-117146428D01*
X140355000Y-117289285D01*
X140497857Y-117432142D01*
X140712142Y-117503571D01*
X140855000Y-117503571D01*
X141069285Y-117432142D01*
X141140714Y-117360714D01*
X141140714Y-116860714D01*
X140855000Y-116860714D01*
X141783571Y-117503571D02*
X141783571Y-116003571D01*
X142640714Y-117503571D01*
X142640714Y-116003571D01*
X144140714Y-117503571D02*
X143283571Y-117503571D01*
X143712142Y-117503571D02*
X143712142Y-116003571D01*
X143569285Y-116217857D01*
X143426428Y-116360714D01*
X143283571Y-116432142D01*
X144997857Y-116646428D02*
X144855000Y-116575000D01*
X144783571Y-116503571D01*
X144712142Y-116360714D01*
X144712142Y-116289285D01*
X144783571Y-116146428D01*
X144855000Y-116075000D01*
X144997857Y-116003571D01*
X145283571Y-116003571D01*
X145426428Y-116075000D01*
X145497857Y-116146428D01*
X145569285Y-116289285D01*
X145569285Y-116360714D01*
X145497857Y-116503571D01*
X145426428Y-116575000D01*
X145283571Y-116646428D01*
X144997857Y-116646428D01*
X144855000Y-116717857D01*
X144783571Y-116789285D01*
X144712142Y-116932142D01*
X144712142Y-117217857D01*
X144783571Y-117360714D01*
X144855000Y-117432142D01*
X144997857Y-117503571D01*
X145283571Y-117503571D01*
X145426428Y-117432142D01*
X145497857Y-117360714D01*
X145569285Y-117217857D01*
X145569285Y-116932142D01*
X145497857Y-116789285D01*
X145426428Y-116717857D01*
X145283571Y-116646428D01*
X141140714Y-118625000D02*
X140997857Y-118553571D01*
X140783571Y-118553571D01*
X140569285Y-118625000D01*
X140426428Y-118767857D01*
X140355000Y-118910714D01*
X140283571Y-119196428D01*
X140283571Y-119410714D01*
X140355000Y-119696428D01*
X140426428Y-119839285D01*
X140569285Y-119982142D01*
X140783571Y-120053571D01*
X140926428Y-120053571D01*
X141140714Y-119982142D01*
X141212142Y-119910714D01*
X141212142Y-119410714D01*
X140926428Y-119410714D01*
X141855000Y-120053571D02*
X141855000Y-118553571D01*
X142426428Y-118553571D01*
X142569285Y-118625000D01*
X142640714Y-118696428D01*
X142712142Y-118839285D01*
X142712142Y-119053571D01*
X142640714Y-119196428D01*
X142569285Y-119267857D01*
X142426428Y-119339285D01*
X141855000Y-119339285D01*
X144140714Y-120053571D02*
X143283571Y-120053571D01*
X143712142Y-120053571D02*
X143712142Y-118553571D01*
X143569285Y-118767857D01*
X143426428Y-118910714D01*
X143283571Y-118982142D01*
X144640714Y-118553571D02*
X145640714Y-118553571D01*
X144997857Y-120053571D01*
X141069285Y-121175000D02*
X140926428Y-121103571D01*
X140712142Y-121103571D01*
X140497857Y-121175000D01*
X140355000Y-121317857D01*
X140283571Y-121460714D01*
X140212142Y-121746428D01*
X140212142Y-121960714D01*
X140283571Y-122246428D01*
X140355000Y-122389285D01*
X140497857Y-122532142D01*
X140712142Y-122603571D01*
X140855000Y-122603571D01*
X141069285Y-122532142D01*
X141140714Y-122460714D01*
X141140714Y-121960714D01*
X140855000Y-121960714D01*
X141783571Y-122603571D02*
X141783571Y-121103571D01*
X142640714Y-122603571D01*
X142640714Y-121103571D01*
X144140714Y-122603571D02*
X143283571Y-122603571D01*
X143712142Y-122603571D02*
X143712142Y-121103571D01*
X143569285Y-121317857D01*
X143426428Y-121460714D01*
X143283571Y-121532142D01*
X144640714Y-121103571D02*
X145640714Y-121103571D01*
X144997857Y-122603571D01*
X141140714Y-123725000D02*
X140997857Y-123653571D01*
X140783571Y-123653571D01*
X140569285Y-123725000D01*
X140426428Y-123867857D01*
X140355000Y-124010714D01*
X140283571Y-124296428D01*
X140283571Y-124510714D01*
X140355000Y-124796428D01*
X140426428Y-124939285D01*
X140569285Y-125082142D01*
X140783571Y-125153571D01*
X140926428Y-125153571D01*
X141140714Y-125082142D01*
X141212142Y-125010714D01*
X141212142Y-124510714D01*
X140926428Y-124510714D01*
X141855000Y-125153571D02*
X141855000Y-123653571D01*
X142426428Y-123653571D01*
X142569285Y-123725000D01*
X142640714Y-123796428D01*
X142712142Y-123939285D01*
X142712142Y-124153571D01*
X142640714Y-124296428D01*
X142569285Y-124367857D01*
X142426428Y-124439285D01*
X141855000Y-124439285D01*
X144140714Y-125153571D02*
X143283571Y-125153571D01*
X143712142Y-125153571D02*
X143712142Y-123653571D01*
X143569285Y-123867857D01*
X143426428Y-124010714D01*
X143283571Y-124082142D01*
X145426428Y-123653571D02*
X145140714Y-123653571D01*
X144997857Y-123725000D01*
X144926428Y-123796428D01*
X144783571Y-124010714D01*
X144712142Y-124296428D01*
X144712142Y-124867857D01*
X144783571Y-125010714D01*
X144855000Y-125082142D01*
X144997857Y-125153571D01*
X145283571Y-125153571D01*
X145426428Y-125082142D01*
X145497857Y-125010714D01*
X145569285Y-124867857D01*
X145569285Y-124510714D01*
X145497857Y-124367857D01*
X145426428Y-124296428D01*
X145283571Y-124225000D01*
X144997857Y-124225000D01*
X144855000Y-124296428D01*
X144783571Y-124367857D01*
X144712142Y-124510714D01*
X141069285Y-126275000D02*
X140926428Y-126203571D01*
X140712142Y-126203571D01*
X140497857Y-126275000D01*
X140355000Y-126417857D01*
X140283571Y-126560714D01*
X140212142Y-126846428D01*
X140212142Y-127060714D01*
X140283571Y-127346428D01*
X140355000Y-127489285D01*
X140497857Y-127632142D01*
X140712142Y-127703571D01*
X140855000Y-127703571D01*
X141069285Y-127632142D01*
X141140714Y-127560714D01*
X141140714Y-127060714D01*
X140855000Y-127060714D01*
X141783571Y-127703571D02*
X141783571Y-126203571D01*
X142640714Y-127703571D01*
X142640714Y-126203571D01*
X144140714Y-127703571D02*
X143283571Y-127703571D01*
X143712142Y-127703571D02*
X143712142Y-126203571D01*
X143569285Y-126417857D01*
X143426428Y-126560714D01*
X143283571Y-126632142D01*
X145426428Y-126203571D02*
X145140714Y-126203571D01*
X144997857Y-126275000D01*
X144926428Y-126346428D01*
X144783571Y-126560714D01*
X144712142Y-126846428D01*
X144712142Y-127417857D01*
X144783571Y-127560714D01*
X144855000Y-127632142D01*
X144997857Y-127703571D01*
X145283571Y-127703571D01*
X145426428Y-127632142D01*
X145497857Y-127560714D01*
X145569285Y-127417857D01*
X145569285Y-127060714D01*
X145497857Y-126917857D01*
X145426428Y-126846428D01*
X145283571Y-126775000D01*
X144997857Y-126775000D01*
X144855000Y-126846428D01*
X144783571Y-126917857D01*
X144712142Y-127060714D01*
X141140714Y-128825000D02*
X140997857Y-128753571D01*
X140783571Y-128753571D01*
X140569285Y-128825000D01*
X140426428Y-128967857D01*
X140355000Y-129110714D01*
X140283571Y-129396428D01*
X140283571Y-129610714D01*
X140355000Y-129896428D01*
X140426428Y-130039285D01*
X140569285Y-130182142D01*
X140783571Y-130253571D01*
X140926428Y-130253571D01*
X141140714Y-130182142D01*
X141212142Y-130110714D01*
X141212142Y-129610714D01*
X140926428Y-129610714D01*
X141855000Y-130253571D02*
X141855000Y-128753571D01*
X142426428Y-128753571D01*
X142569285Y-128825000D01*
X142640714Y-128896428D01*
X142712142Y-129039285D01*
X142712142Y-129253571D01*
X142640714Y-129396428D01*
X142569285Y-129467857D01*
X142426428Y-129539285D01*
X141855000Y-129539285D01*
X144140714Y-130253571D02*
X143283571Y-130253571D01*
X143712142Y-130253571D02*
X143712142Y-128753571D01*
X143569285Y-128967857D01*
X143426428Y-129110714D01*
X143283571Y-129182142D01*
X145497857Y-128753571D02*
X144783571Y-128753571D01*
X144712142Y-129467857D01*
X144783571Y-129396428D01*
X144926428Y-129325000D01*
X145283571Y-129325000D01*
X145426428Y-129396428D01*
X145497857Y-129467857D01*
X145569285Y-129610714D01*
X145569285Y-129967857D01*
X145497857Y-130110714D01*
X145426428Y-130182142D01*
X145283571Y-130253571D01*
X144926428Y-130253571D01*
X144783571Y-130182142D01*
X144712142Y-130110714D01*
X141140714Y-105925000D02*
X140997857Y-105853571D01*
X140783571Y-105853571D01*
X140569285Y-105925000D01*
X140426428Y-106067857D01*
X140355000Y-106210714D01*
X140283571Y-106496428D01*
X140283571Y-106710714D01*
X140355000Y-106996428D01*
X140426428Y-107139285D01*
X140569285Y-107282142D01*
X140783571Y-107353571D01*
X140926428Y-107353571D01*
X141140714Y-107282142D01*
X141212142Y-107210714D01*
X141212142Y-106710714D01*
X140926428Y-106710714D01*
X141855000Y-107353571D02*
X141855000Y-105853571D01*
X142426428Y-105853571D01*
X142569285Y-105925000D01*
X142640714Y-105996428D01*
X142712142Y-106139285D01*
X142712142Y-106353571D01*
X142640714Y-106496428D01*
X142569285Y-106567857D01*
X142426428Y-106639285D01*
X141855000Y-106639285D01*
X143283571Y-105996428D02*
X143355000Y-105925000D01*
X143497857Y-105853571D01*
X143855000Y-105853571D01*
X143997857Y-105925000D01*
X144069285Y-105996428D01*
X144140714Y-106139285D01*
X144140714Y-106282142D01*
X144069285Y-106496428D01*
X143212142Y-107353571D01*
X144140714Y-107353571D01*
X145569285Y-107353571D02*
X144712142Y-107353571D01*
X145140714Y-107353571D02*
X145140714Y-105853571D01*
X144997857Y-106067857D01*
X144855000Y-106210714D01*
X144712142Y-106282142D01*
X141140714Y-108475000D02*
X140997857Y-108403571D01*
X140783571Y-108403571D01*
X140569285Y-108475000D01*
X140426428Y-108617857D01*
X140355000Y-108760714D01*
X140283571Y-109046428D01*
X140283571Y-109260714D01*
X140355000Y-109546428D01*
X140426428Y-109689285D01*
X140569285Y-109832142D01*
X140783571Y-109903571D01*
X140926428Y-109903571D01*
X141140714Y-109832142D01*
X141212142Y-109760714D01*
X141212142Y-109260714D01*
X140926428Y-109260714D01*
X141855000Y-109903571D02*
X141855000Y-108403571D01*
X142426428Y-108403571D01*
X142569285Y-108475000D01*
X142640714Y-108546428D01*
X142712142Y-108689285D01*
X142712142Y-108903571D01*
X142640714Y-109046428D01*
X142569285Y-109117857D01*
X142426428Y-109189285D01*
X141855000Y-109189285D01*
X144140714Y-109903571D02*
X143283571Y-109903571D01*
X143712142Y-109903571D02*
X143712142Y-108403571D01*
X143569285Y-108617857D01*
X143426428Y-108760714D01*
X143283571Y-108832142D01*
X144855000Y-109903571D02*
X145140714Y-109903571D01*
X145283571Y-109832142D01*
X145355000Y-109760714D01*
X145497857Y-109546428D01*
X145569285Y-109260714D01*
X145569285Y-108689285D01*
X145497857Y-108546428D01*
X145426428Y-108475000D01*
X145283571Y-108403571D01*
X144997857Y-108403571D01*
X144855000Y-108475000D01*
X144783571Y-108546428D01*
X144712142Y-108689285D01*
X144712142Y-109046428D01*
X144783571Y-109189285D01*
X144855000Y-109260714D01*
X144997857Y-109332142D01*
X145283571Y-109332142D01*
X145426428Y-109260714D01*
X145497857Y-109189285D01*
X145569285Y-109046428D01*
X141069285Y-103390000D02*
X140926428Y-103318571D01*
X140712142Y-103318571D01*
X140497857Y-103390000D01*
X140355000Y-103532857D01*
X140283571Y-103675714D01*
X140212142Y-103961428D01*
X140212142Y-104175714D01*
X140283571Y-104461428D01*
X140355000Y-104604285D01*
X140497857Y-104747142D01*
X140712142Y-104818571D01*
X140855000Y-104818571D01*
X141069285Y-104747142D01*
X141140714Y-104675714D01*
X141140714Y-104175714D01*
X140855000Y-104175714D01*
X141783571Y-104818571D02*
X141783571Y-103318571D01*
X142640714Y-104818571D01*
X142640714Y-103318571D01*
X143283571Y-103461428D02*
X143355000Y-103390000D01*
X143497857Y-103318571D01*
X143855000Y-103318571D01*
X143997857Y-103390000D01*
X144069285Y-103461428D01*
X144140714Y-103604285D01*
X144140714Y-103747142D01*
X144069285Y-103961428D01*
X143212142Y-104818571D01*
X144140714Y-104818571D01*
X144712142Y-103461428D02*
X144783571Y-103390000D01*
X144926428Y-103318571D01*
X145283571Y-103318571D01*
X145426428Y-103390000D01*
X145497857Y-103461428D01*
X145569285Y-103604285D01*
X145569285Y-103747142D01*
X145497857Y-103961428D01*
X144640714Y-104818571D01*
X145569285Y-104818571D01*
X141140714Y-100850000D02*
X140997857Y-100778571D01*
X140783571Y-100778571D01*
X140569285Y-100850000D01*
X140426428Y-100992857D01*
X140355000Y-101135714D01*
X140283571Y-101421428D01*
X140283571Y-101635714D01*
X140355000Y-101921428D01*
X140426428Y-102064285D01*
X140569285Y-102207142D01*
X140783571Y-102278571D01*
X140926428Y-102278571D01*
X141140714Y-102207142D01*
X141212142Y-102135714D01*
X141212142Y-101635714D01*
X140926428Y-101635714D01*
X141855000Y-102278571D02*
X141855000Y-100778571D01*
X142426428Y-100778571D01*
X142569285Y-100850000D01*
X142640714Y-100921428D01*
X142712142Y-101064285D01*
X142712142Y-101278571D01*
X142640714Y-101421428D01*
X142569285Y-101492857D01*
X142426428Y-101564285D01*
X141855000Y-101564285D01*
X143283571Y-100921428D02*
X143355000Y-100850000D01*
X143497857Y-100778571D01*
X143855000Y-100778571D01*
X143997857Y-100850000D01*
X144069285Y-100921428D01*
X144140714Y-101064285D01*
X144140714Y-101207142D01*
X144069285Y-101421428D01*
X143212142Y-102278571D01*
X144140714Y-102278571D01*
X144712142Y-100921428D02*
X144783571Y-100850000D01*
X144926428Y-100778571D01*
X145283571Y-100778571D01*
X145426428Y-100850000D01*
X145497857Y-100921428D01*
X145569285Y-101064285D01*
X145569285Y-101207142D01*
X145497857Y-101421428D01*
X144640714Y-102278571D01*
X145569285Y-102278571D01*
X141069285Y-98310000D02*
X140926428Y-98238571D01*
X140712142Y-98238571D01*
X140497857Y-98310000D01*
X140355000Y-98452857D01*
X140283571Y-98595714D01*
X140212142Y-98881428D01*
X140212142Y-99095714D01*
X140283571Y-99381428D01*
X140355000Y-99524285D01*
X140497857Y-99667142D01*
X140712142Y-99738571D01*
X140855000Y-99738571D01*
X141069285Y-99667142D01*
X141140714Y-99595714D01*
X141140714Y-99095714D01*
X140855000Y-99095714D01*
X141783571Y-99738571D02*
X141783571Y-98238571D01*
X142640714Y-99738571D01*
X142640714Y-98238571D01*
X143283571Y-98381428D02*
X143355000Y-98310000D01*
X143497857Y-98238571D01*
X143855000Y-98238571D01*
X143997857Y-98310000D01*
X144069285Y-98381428D01*
X144140714Y-98524285D01*
X144140714Y-98667142D01*
X144069285Y-98881428D01*
X143212142Y-99738571D01*
X144140714Y-99738571D01*
X144640714Y-98238571D02*
X145569285Y-98238571D01*
X145069285Y-98810000D01*
X145283571Y-98810000D01*
X145426428Y-98881428D01*
X145497857Y-98952857D01*
X145569285Y-99095714D01*
X145569285Y-99452857D01*
X145497857Y-99595714D01*
X145426428Y-99667142D01*
X145283571Y-99738571D01*
X144855000Y-99738571D01*
X144712142Y-99667142D01*
X144640714Y-99595714D01*
X141140714Y-95770000D02*
X140997857Y-95698571D01*
X140783571Y-95698571D01*
X140569285Y-95770000D01*
X140426428Y-95912857D01*
X140355000Y-96055714D01*
X140283571Y-96341428D01*
X140283571Y-96555714D01*
X140355000Y-96841428D01*
X140426428Y-96984285D01*
X140569285Y-97127142D01*
X140783571Y-97198571D01*
X140926428Y-97198571D01*
X141140714Y-97127142D01*
X141212142Y-97055714D01*
X141212142Y-96555714D01*
X140926428Y-96555714D01*
X141855000Y-97198571D02*
X141855000Y-95698571D01*
X142426428Y-95698571D01*
X142569285Y-95770000D01*
X142640714Y-95841428D01*
X142712142Y-95984285D01*
X142712142Y-96198571D01*
X142640714Y-96341428D01*
X142569285Y-96412857D01*
X142426428Y-96484285D01*
X141855000Y-96484285D01*
X143283571Y-95841428D02*
X143355000Y-95770000D01*
X143497857Y-95698571D01*
X143855000Y-95698571D01*
X143997857Y-95770000D01*
X144069285Y-95841428D01*
X144140714Y-95984285D01*
X144140714Y-96127142D01*
X144069285Y-96341428D01*
X143212142Y-97198571D01*
X144140714Y-97198571D01*
X144640714Y-95698571D02*
X145569285Y-95698571D01*
X145069285Y-96270000D01*
X145283571Y-96270000D01*
X145426428Y-96341428D01*
X145497857Y-96412857D01*
X145569285Y-96555714D01*
X145569285Y-96912857D01*
X145497857Y-97055714D01*
X145426428Y-97127142D01*
X145283571Y-97198571D01*
X144855000Y-97198571D01*
X144712142Y-97127142D01*
X144640714Y-97055714D01*
X141069285Y-93230000D02*
X140926428Y-93158571D01*
X140712142Y-93158571D01*
X140497857Y-93230000D01*
X140355000Y-93372857D01*
X140283571Y-93515714D01*
X140212142Y-93801428D01*
X140212142Y-94015714D01*
X140283571Y-94301428D01*
X140355000Y-94444285D01*
X140497857Y-94587142D01*
X140712142Y-94658571D01*
X140855000Y-94658571D01*
X141069285Y-94587142D01*
X141140714Y-94515714D01*
X141140714Y-94015714D01*
X140855000Y-94015714D01*
X141783571Y-94658571D02*
X141783571Y-93158571D01*
X142640714Y-94658571D01*
X142640714Y-93158571D01*
X143283571Y-93301428D02*
X143355000Y-93230000D01*
X143497857Y-93158571D01*
X143855000Y-93158571D01*
X143997857Y-93230000D01*
X144069285Y-93301428D01*
X144140714Y-93444285D01*
X144140714Y-93587142D01*
X144069285Y-93801428D01*
X143212142Y-94658571D01*
X144140714Y-94658571D01*
X145426428Y-93658571D02*
X145426428Y-94658571D01*
X145069285Y-93087142D02*
X144712142Y-94158571D01*
X145640714Y-94158571D01*
X141140714Y-90690000D02*
X140997857Y-90618571D01*
X140783571Y-90618571D01*
X140569285Y-90690000D01*
X140426428Y-90832857D01*
X140355000Y-90975714D01*
X140283571Y-91261428D01*
X140283571Y-91475714D01*
X140355000Y-91761428D01*
X140426428Y-91904285D01*
X140569285Y-92047142D01*
X140783571Y-92118571D01*
X140926428Y-92118571D01*
X141140714Y-92047142D01*
X141212142Y-91975714D01*
X141212142Y-91475714D01*
X140926428Y-91475714D01*
X141855000Y-92118571D02*
X141855000Y-90618571D01*
X142426428Y-90618571D01*
X142569285Y-90690000D01*
X142640714Y-90761428D01*
X142712142Y-90904285D01*
X142712142Y-91118571D01*
X142640714Y-91261428D01*
X142569285Y-91332857D01*
X142426428Y-91404285D01*
X141855000Y-91404285D01*
X143283571Y-90761428D02*
X143355000Y-90690000D01*
X143497857Y-90618571D01*
X143855000Y-90618571D01*
X143997857Y-90690000D01*
X144069285Y-90761428D01*
X144140714Y-90904285D01*
X144140714Y-91047142D01*
X144069285Y-91261428D01*
X143212142Y-92118571D01*
X144140714Y-92118571D01*
X145426428Y-91118571D02*
X145426428Y-92118571D01*
X145069285Y-90547142D02*
X144712142Y-91618571D01*
X145640714Y-91618571D01*
X141069285Y-88150000D02*
X140926428Y-88078571D01*
X140712142Y-88078571D01*
X140497857Y-88150000D01*
X140355000Y-88292857D01*
X140283571Y-88435714D01*
X140212142Y-88721428D01*
X140212142Y-88935714D01*
X140283571Y-89221428D01*
X140355000Y-89364285D01*
X140497857Y-89507142D01*
X140712142Y-89578571D01*
X140855000Y-89578571D01*
X141069285Y-89507142D01*
X141140714Y-89435714D01*
X141140714Y-88935714D01*
X140855000Y-88935714D01*
X141783571Y-89578571D02*
X141783571Y-88078571D01*
X142640714Y-89578571D01*
X142640714Y-88078571D01*
X143283571Y-88221428D02*
X143355000Y-88150000D01*
X143497857Y-88078571D01*
X143855000Y-88078571D01*
X143997857Y-88150000D01*
X144069285Y-88221428D01*
X144140714Y-88364285D01*
X144140714Y-88507142D01*
X144069285Y-88721428D01*
X143212142Y-89578571D01*
X144140714Y-89578571D01*
X145497857Y-88078571D02*
X144783571Y-88078571D01*
X144712142Y-88792857D01*
X144783571Y-88721428D01*
X144926428Y-88650000D01*
X145283571Y-88650000D01*
X145426428Y-88721428D01*
X145497857Y-88792857D01*
X145569285Y-88935714D01*
X145569285Y-89292857D01*
X145497857Y-89435714D01*
X145426428Y-89507142D01*
X145283571Y-89578571D01*
X144926428Y-89578571D01*
X144783571Y-89507142D01*
X144712142Y-89435714D01*
X141140714Y-85610000D02*
X140997857Y-85538571D01*
X140783571Y-85538571D01*
X140569285Y-85610000D01*
X140426428Y-85752857D01*
X140355000Y-85895714D01*
X140283571Y-86181428D01*
X140283571Y-86395714D01*
X140355000Y-86681428D01*
X140426428Y-86824285D01*
X140569285Y-86967142D01*
X140783571Y-87038571D01*
X140926428Y-87038571D01*
X141140714Y-86967142D01*
X141212142Y-86895714D01*
X141212142Y-86395714D01*
X140926428Y-86395714D01*
X141855000Y-87038571D02*
X141855000Y-85538571D01*
X142426428Y-85538571D01*
X142569285Y-85610000D01*
X142640714Y-85681428D01*
X142712142Y-85824285D01*
X142712142Y-86038571D01*
X142640714Y-86181428D01*
X142569285Y-86252857D01*
X142426428Y-86324285D01*
X141855000Y-86324285D01*
X143283571Y-85681428D02*
X143355000Y-85610000D01*
X143497857Y-85538571D01*
X143855000Y-85538571D01*
X143997857Y-85610000D01*
X144069285Y-85681428D01*
X144140714Y-85824285D01*
X144140714Y-85967142D01*
X144069285Y-86181428D01*
X143212142Y-87038571D01*
X144140714Y-87038571D01*
X145497857Y-85538571D02*
X144783571Y-85538571D01*
X144712142Y-86252857D01*
X144783571Y-86181428D01*
X144926428Y-86110000D01*
X145283571Y-86110000D01*
X145426428Y-86181428D01*
X145497857Y-86252857D01*
X145569285Y-86395714D01*
X145569285Y-86752857D01*
X145497857Y-86895714D01*
X145426428Y-86967142D01*
X145283571Y-87038571D01*
X144926428Y-87038571D01*
X144783571Y-86967142D01*
X144712142Y-86895714D01*
X139382857Y-82998571D02*
X139668571Y-82998571D01*
X139811428Y-83070000D01*
X139954285Y-83212857D01*
X140025714Y-83498571D01*
X140025714Y-83998571D01*
X139954285Y-84284285D01*
X139811428Y-84427142D01*
X139668571Y-84498571D01*
X139382857Y-84498571D01*
X139240000Y-84427142D01*
X139097142Y-84284285D01*
X139025714Y-83998571D01*
X139025714Y-83498571D01*
X139097142Y-83212857D01*
X139240000Y-83070000D01*
X139382857Y-82998571D01*
X140668571Y-82998571D02*
X140668571Y-84212857D01*
X140740000Y-84355714D01*
X140811428Y-84427142D01*
X140954285Y-84498571D01*
X141240000Y-84498571D01*
X141382857Y-84427142D01*
X141454285Y-84355714D01*
X141525714Y-84212857D01*
X141525714Y-82998571D01*
X142025714Y-82998571D02*
X142882857Y-82998571D01*
X142454285Y-84498571D02*
X142454285Y-82998571D01*
X144097142Y-82998571D02*
X143382857Y-82998571D01*
X143311428Y-83712857D01*
X143382857Y-83641428D01*
X143525714Y-83570000D01*
X143882857Y-83570000D01*
X144025714Y-83641428D01*
X144097142Y-83712857D01*
X144168571Y-83855714D01*
X144168571Y-84212857D01*
X144097142Y-84355714D01*
X144025714Y-84427142D01*
X143882857Y-84498571D01*
X143525714Y-84498571D01*
X143382857Y-84427142D01*
X143311428Y-84355714D01*
X144597142Y-82998571D02*
X145097142Y-84498571D01*
X145597142Y-82998571D01*
X151682142Y-132758571D02*
X151682142Y-131258571D01*
X152039285Y-131258571D01*
X152253571Y-131330000D01*
X152396428Y-131472857D01*
X152467857Y-131615714D01*
X152539285Y-131901428D01*
X152539285Y-132115714D01*
X152467857Y-132401428D01*
X152396428Y-132544285D01*
X152253571Y-132687142D01*
X152039285Y-132758571D01*
X151682142Y-132758571D01*
X154039285Y-132615714D02*
X153967857Y-132687142D01*
X153753571Y-132758571D01*
X153610714Y-132758571D01*
X153396428Y-132687142D01*
X153253571Y-132544285D01*
X153182142Y-132401428D01*
X153110714Y-132115714D01*
X153110714Y-131901428D01*
X153182142Y-131615714D01*
X153253571Y-131472857D01*
X153396428Y-131330000D01*
X153610714Y-131258571D01*
X153753571Y-131258571D01*
X153967857Y-131330000D01*
X154039285Y-131401428D01*
X154967857Y-131258571D02*
X155253571Y-131258571D01*
X155396428Y-131330000D01*
X155539285Y-131472857D01*
X155610714Y-131758571D01*
X155610714Y-132258571D01*
X155539285Y-132544285D01*
X155396428Y-132687142D01*
X155253571Y-132758571D01*
X154967857Y-132758571D01*
X154825000Y-132687142D01*
X154682142Y-132544285D01*
X154610714Y-132258571D01*
X154610714Y-131758571D01*
X154682142Y-131472857D01*
X154825000Y-131330000D01*
X154967857Y-131258571D01*
X156253571Y-132758571D02*
X156253571Y-131258571D01*
X156753571Y-132330000D01*
X157253571Y-131258571D01*
X157253571Y-132758571D01*
X151725714Y-129790000D02*
X152440000Y-129790000D01*
X151582857Y-130218571D02*
X152082857Y-128718571D01*
X152582857Y-130218571D01*
X153082857Y-130218571D02*
X153082857Y-128718571D01*
X153440000Y-128718571D01*
X153654285Y-128790000D01*
X153797142Y-128932857D01*
X153868571Y-129075714D01*
X153940000Y-129361428D01*
X153940000Y-129575714D01*
X153868571Y-129861428D01*
X153797142Y-130004285D01*
X153654285Y-130147142D01*
X153440000Y-130218571D01*
X153082857Y-130218571D01*
X155440000Y-130075714D02*
X155368571Y-130147142D01*
X155154285Y-130218571D01*
X155011428Y-130218571D01*
X154797142Y-130147142D01*
X154654285Y-130004285D01*
X154582857Y-129861428D01*
X154511428Y-129575714D01*
X154511428Y-129361428D01*
X154582857Y-129075714D01*
X154654285Y-128932857D01*
X154797142Y-128790000D01*
X155011428Y-128718571D01*
X155154285Y-128718571D01*
X155368571Y-128790000D01*
X155440000Y-128861428D01*
X156797142Y-130218571D02*
X156082857Y-130218571D01*
X156082857Y-128718571D01*
X157297142Y-130218571D02*
X157297142Y-128718571D01*
X158154285Y-130218571D02*
X157511428Y-129361428D01*
X158154285Y-128718571D02*
X157297142Y-129575714D01*
X151618571Y-127250000D02*
X152332857Y-127250000D01*
X151475714Y-127678571D02*
X151975714Y-126178571D01*
X152475714Y-127678571D01*
X152975714Y-127678571D02*
X152975714Y-126178571D01*
X153332857Y-126178571D01*
X153547142Y-126250000D01*
X153690000Y-126392857D01*
X153761428Y-126535714D01*
X153832857Y-126821428D01*
X153832857Y-127035714D01*
X153761428Y-127321428D01*
X153690000Y-127464285D01*
X153547142Y-127607142D01*
X153332857Y-127678571D01*
X152975714Y-127678571D01*
X154475714Y-127678571D02*
X154475714Y-126178571D01*
X154832857Y-126178571D01*
X155047142Y-126250000D01*
X155190000Y-126392857D01*
X155261428Y-126535714D01*
X155332857Y-126821428D01*
X155332857Y-127035714D01*
X155261428Y-127321428D01*
X155190000Y-127464285D01*
X155047142Y-127607142D01*
X154832857Y-127678571D01*
X154475714Y-127678571D01*
X156475714Y-126892857D02*
X156690000Y-126964285D01*
X156761428Y-127035714D01*
X156832857Y-127178571D01*
X156832857Y-127392857D01*
X156761428Y-127535714D01*
X156690000Y-127607142D01*
X156547142Y-127678571D01*
X155975714Y-127678571D01*
X155975714Y-126178571D01*
X156475714Y-126178571D01*
X156618571Y-126250000D01*
X156690000Y-126321428D01*
X156761428Y-126464285D01*
X156761428Y-126607142D01*
X156690000Y-126750000D01*
X156618571Y-126821428D01*
X156475714Y-126892857D01*
X155975714Y-126892857D01*
X157332857Y-126178571D02*
X158332857Y-126178571D01*
X157690000Y-127678571D01*
X151618571Y-124710000D02*
X152332857Y-124710000D01*
X151475714Y-125138571D02*
X151975714Y-123638571D01*
X152475714Y-125138571D01*
X152975714Y-125138571D02*
X152975714Y-123638571D01*
X153332857Y-123638571D01*
X153547142Y-123710000D01*
X153690000Y-123852857D01*
X153761428Y-123995714D01*
X153832857Y-124281428D01*
X153832857Y-124495714D01*
X153761428Y-124781428D01*
X153690000Y-124924285D01*
X153547142Y-125067142D01*
X153332857Y-125138571D01*
X152975714Y-125138571D01*
X154475714Y-125138571D02*
X154475714Y-123638571D01*
X154832857Y-123638571D01*
X155047142Y-123710000D01*
X155190000Y-123852857D01*
X155261428Y-123995714D01*
X155332857Y-124281428D01*
X155332857Y-124495714D01*
X155261428Y-124781428D01*
X155190000Y-124924285D01*
X155047142Y-125067142D01*
X154832857Y-125138571D01*
X154475714Y-125138571D01*
X156475714Y-124352857D02*
X156690000Y-124424285D01*
X156761428Y-124495714D01*
X156832857Y-124638571D01*
X156832857Y-124852857D01*
X156761428Y-124995714D01*
X156690000Y-125067142D01*
X156547142Y-125138571D01*
X155975714Y-125138571D01*
X155975714Y-123638571D01*
X156475714Y-123638571D01*
X156618571Y-123710000D01*
X156690000Y-123781428D01*
X156761428Y-123924285D01*
X156761428Y-124067142D01*
X156690000Y-124210000D01*
X156618571Y-124281428D01*
X156475714Y-124352857D01*
X155975714Y-124352857D01*
X158118571Y-123638571D02*
X157832857Y-123638571D01*
X157690000Y-123710000D01*
X157618571Y-123781428D01*
X157475714Y-123995714D01*
X157404285Y-124281428D01*
X157404285Y-124852857D01*
X157475714Y-124995714D01*
X157547142Y-125067142D01*
X157690000Y-125138571D01*
X157975714Y-125138571D01*
X158118571Y-125067142D01*
X158190000Y-124995714D01*
X158261428Y-124852857D01*
X158261428Y-124495714D01*
X158190000Y-124352857D01*
X158118571Y-124281428D01*
X157975714Y-124210000D01*
X157690000Y-124210000D01*
X157547142Y-124281428D01*
X157475714Y-124352857D01*
X157404285Y-124495714D01*
X151618571Y-122170000D02*
X152332857Y-122170000D01*
X151475714Y-122598571D02*
X151975714Y-121098571D01*
X152475714Y-122598571D01*
X152975714Y-122598571D02*
X152975714Y-121098571D01*
X153332857Y-121098571D01*
X153547142Y-121170000D01*
X153690000Y-121312857D01*
X153761428Y-121455714D01*
X153832857Y-121741428D01*
X153832857Y-121955714D01*
X153761428Y-122241428D01*
X153690000Y-122384285D01*
X153547142Y-122527142D01*
X153332857Y-122598571D01*
X152975714Y-122598571D01*
X154475714Y-122598571D02*
X154475714Y-121098571D01*
X154832857Y-121098571D01*
X155047142Y-121170000D01*
X155190000Y-121312857D01*
X155261428Y-121455714D01*
X155332857Y-121741428D01*
X155332857Y-121955714D01*
X155261428Y-122241428D01*
X155190000Y-122384285D01*
X155047142Y-122527142D01*
X154832857Y-122598571D01*
X154475714Y-122598571D01*
X156475714Y-121812857D02*
X156690000Y-121884285D01*
X156761428Y-121955714D01*
X156832857Y-122098571D01*
X156832857Y-122312857D01*
X156761428Y-122455714D01*
X156690000Y-122527142D01*
X156547142Y-122598571D01*
X155975714Y-122598571D01*
X155975714Y-121098571D01*
X156475714Y-121098571D01*
X156618571Y-121170000D01*
X156690000Y-121241428D01*
X156761428Y-121384285D01*
X156761428Y-121527142D01*
X156690000Y-121670000D01*
X156618571Y-121741428D01*
X156475714Y-121812857D01*
X155975714Y-121812857D01*
X158190000Y-121098571D02*
X157475714Y-121098571D01*
X157404285Y-121812857D01*
X157475714Y-121741428D01*
X157618571Y-121670000D01*
X157975714Y-121670000D01*
X158118571Y-121741428D01*
X158190000Y-121812857D01*
X158261428Y-121955714D01*
X158261428Y-122312857D01*
X158190000Y-122455714D01*
X158118571Y-122527142D01*
X157975714Y-122598571D01*
X157618571Y-122598571D01*
X157475714Y-122527142D01*
X157404285Y-122455714D01*
X151618571Y-119630000D02*
X152332857Y-119630000D01*
X151475714Y-120058571D02*
X151975714Y-118558571D01*
X152475714Y-120058571D01*
X152975714Y-120058571D02*
X152975714Y-118558571D01*
X153332857Y-118558571D01*
X153547142Y-118630000D01*
X153690000Y-118772857D01*
X153761428Y-118915714D01*
X153832857Y-119201428D01*
X153832857Y-119415714D01*
X153761428Y-119701428D01*
X153690000Y-119844285D01*
X153547142Y-119987142D01*
X153332857Y-120058571D01*
X152975714Y-120058571D01*
X154475714Y-120058571D02*
X154475714Y-118558571D01*
X154832857Y-118558571D01*
X155047142Y-118630000D01*
X155190000Y-118772857D01*
X155261428Y-118915714D01*
X155332857Y-119201428D01*
X155332857Y-119415714D01*
X155261428Y-119701428D01*
X155190000Y-119844285D01*
X155047142Y-119987142D01*
X154832857Y-120058571D01*
X154475714Y-120058571D01*
X156475714Y-119272857D02*
X156690000Y-119344285D01*
X156761428Y-119415714D01*
X156832857Y-119558571D01*
X156832857Y-119772857D01*
X156761428Y-119915714D01*
X156690000Y-119987142D01*
X156547142Y-120058571D01*
X155975714Y-120058571D01*
X155975714Y-118558571D01*
X156475714Y-118558571D01*
X156618571Y-118630000D01*
X156690000Y-118701428D01*
X156761428Y-118844285D01*
X156761428Y-118987142D01*
X156690000Y-119130000D01*
X156618571Y-119201428D01*
X156475714Y-119272857D01*
X155975714Y-119272857D01*
X158118571Y-119058571D02*
X158118571Y-120058571D01*
X157761428Y-118487142D02*
X157404285Y-119558571D01*
X158332857Y-119558571D01*
X151618571Y-117090000D02*
X152332857Y-117090000D01*
X151475714Y-117518571D02*
X151975714Y-116018571D01*
X152475714Y-117518571D01*
X152975714Y-117518571D02*
X152975714Y-116018571D01*
X153332857Y-116018571D01*
X153547142Y-116090000D01*
X153690000Y-116232857D01*
X153761428Y-116375714D01*
X153832857Y-116661428D01*
X153832857Y-116875714D01*
X153761428Y-117161428D01*
X153690000Y-117304285D01*
X153547142Y-117447142D01*
X153332857Y-117518571D01*
X152975714Y-117518571D01*
X154475714Y-117518571D02*
X154475714Y-116018571D01*
X154832857Y-116018571D01*
X155047142Y-116090000D01*
X155190000Y-116232857D01*
X155261428Y-116375714D01*
X155332857Y-116661428D01*
X155332857Y-116875714D01*
X155261428Y-117161428D01*
X155190000Y-117304285D01*
X155047142Y-117447142D01*
X154832857Y-117518571D01*
X154475714Y-117518571D01*
X156475714Y-116732857D02*
X156690000Y-116804285D01*
X156761428Y-116875714D01*
X156832857Y-117018571D01*
X156832857Y-117232857D01*
X156761428Y-117375714D01*
X156690000Y-117447142D01*
X156547142Y-117518571D01*
X155975714Y-117518571D01*
X155975714Y-116018571D01*
X156475714Y-116018571D01*
X156618571Y-116090000D01*
X156690000Y-116161428D01*
X156761428Y-116304285D01*
X156761428Y-116447142D01*
X156690000Y-116590000D01*
X156618571Y-116661428D01*
X156475714Y-116732857D01*
X155975714Y-116732857D01*
X157332857Y-116018571D02*
X158261428Y-116018571D01*
X157761428Y-116590000D01*
X157975714Y-116590000D01*
X158118571Y-116661428D01*
X158190000Y-116732857D01*
X158261428Y-116875714D01*
X158261428Y-117232857D01*
X158190000Y-117375714D01*
X158118571Y-117447142D01*
X157975714Y-117518571D01*
X157547142Y-117518571D01*
X157404285Y-117447142D01*
X157332857Y-117375714D01*
X151618571Y-114550000D02*
X152332857Y-114550000D01*
X151475714Y-114978571D02*
X151975714Y-113478571D01*
X152475714Y-114978571D01*
X152975714Y-114978571D02*
X152975714Y-113478571D01*
X153332857Y-113478571D01*
X153547142Y-113550000D01*
X153690000Y-113692857D01*
X153761428Y-113835714D01*
X153832857Y-114121428D01*
X153832857Y-114335714D01*
X153761428Y-114621428D01*
X153690000Y-114764285D01*
X153547142Y-114907142D01*
X153332857Y-114978571D01*
X152975714Y-114978571D01*
X154475714Y-114978571D02*
X154475714Y-113478571D01*
X154832857Y-113478571D01*
X155047142Y-113550000D01*
X155190000Y-113692857D01*
X155261428Y-113835714D01*
X155332857Y-114121428D01*
X155332857Y-114335714D01*
X155261428Y-114621428D01*
X155190000Y-114764285D01*
X155047142Y-114907142D01*
X154832857Y-114978571D01*
X154475714Y-114978571D01*
X156475714Y-114192857D02*
X156690000Y-114264285D01*
X156761428Y-114335714D01*
X156832857Y-114478571D01*
X156832857Y-114692857D01*
X156761428Y-114835714D01*
X156690000Y-114907142D01*
X156547142Y-114978571D01*
X155975714Y-114978571D01*
X155975714Y-113478571D01*
X156475714Y-113478571D01*
X156618571Y-113550000D01*
X156690000Y-113621428D01*
X156761428Y-113764285D01*
X156761428Y-113907142D01*
X156690000Y-114050000D01*
X156618571Y-114121428D01*
X156475714Y-114192857D01*
X155975714Y-114192857D01*
X157404285Y-113621428D02*
X157475714Y-113550000D01*
X157618571Y-113478571D01*
X157975714Y-113478571D01*
X158118571Y-113550000D01*
X158190000Y-113621428D01*
X158261428Y-113764285D01*
X158261428Y-113907142D01*
X158190000Y-114121428D01*
X157332857Y-114978571D01*
X158261428Y-114978571D01*
X151618571Y-112010000D02*
X152332857Y-112010000D01*
X151475714Y-112438571D02*
X151975714Y-110938571D01*
X152475714Y-112438571D01*
X152975714Y-112438571D02*
X152975714Y-110938571D01*
X153332857Y-110938571D01*
X153547142Y-111010000D01*
X153690000Y-111152857D01*
X153761428Y-111295714D01*
X153832857Y-111581428D01*
X153832857Y-111795714D01*
X153761428Y-112081428D01*
X153690000Y-112224285D01*
X153547142Y-112367142D01*
X153332857Y-112438571D01*
X152975714Y-112438571D01*
X154475714Y-112438571D02*
X154475714Y-110938571D01*
X154832857Y-110938571D01*
X155047142Y-111010000D01*
X155190000Y-111152857D01*
X155261428Y-111295714D01*
X155332857Y-111581428D01*
X155332857Y-111795714D01*
X155261428Y-112081428D01*
X155190000Y-112224285D01*
X155047142Y-112367142D01*
X154832857Y-112438571D01*
X154475714Y-112438571D01*
X156475714Y-111652857D02*
X156690000Y-111724285D01*
X156761428Y-111795714D01*
X156832857Y-111938571D01*
X156832857Y-112152857D01*
X156761428Y-112295714D01*
X156690000Y-112367142D01*
X156547142Y-112438571D01*
X155975714Y-112438571D01*
X155975714Y-110938571D01*
X156475714Y-110938571D01*
X156618571Y-111010000D01*
X156690000Y-111081428D01*
X156761428Y-111224285D01*
X156761428Y-111367142D01*
X156690000Y-111510000D01*
X156618571Y-111581428D01*
X156475714Y-111652857D01*
X155975714Y-111652857D01*
X158261428Y-112438571D02*
X157404285Y-112438571D01*
X157832857Y-112438571D02*
X157832857Y-110938571D01*
X157690000Y-111152857D01*
X157547142Y-111295714D01*
X157404285Y-111367142D01*
X151618571Y-109470000D02*
X152332857Y-109470000D01*
X151475714Y-109898571D02*
X151975714Y-108398571D01*
X152475714Y-109898571D01*
X152975714Y-109898571D02*
X152975714Y-108398571D01*
X153332857Y-108398571D01*
X153547142Y-108470000D01*
X153690000Y-108612857D01*
X153761428Y-108755714D01*
X153832857Y-109041428D01*
X153832857Y-109255714D01*
X153761428Y-109541428D01*
X153690000Y-109684285D01*
X153547142Y-109827142D01*
X153332857Y-109898571D01*
X152975714Y-109898571D01*
X154475714Y-109898571D02*
X154475714Y-108398571D01*
X154832857Y-108398571D01*
X155047142Y-108470000D01*
X155190000Y-108612857D01*
X155261428Y-108755714D01*
X155332857Y-109041428D01*
X155332857Y-109255714D01*
X155261428Y-109541428D01*
X155190000Y-109684285D01*
X155047142Y-109827142D01*
X154832857Y-109898571D01*
X154475714Y-109898571D01*
X156475714Y-109112857D02*
X156690000Y-109184285D01*
X156761428Y-109255714D01*
X156832857Y-109398571D01*
X156832857Y-109612857D01*
X156761428Y-109755714D01*
X156690000Y-109827142D01*
X156547142Y-109898571D01*
X155975714Y-109898571D01*
X155975714Y-108398571D01*
X156475714Y-108398571D01*
X156618571Y-108470000D01*
X156690000Y-108541428D01*
X156761428Y-108684285D01*
X156761428Y-108827142D01*
X156690000Y-108970000D01*
X156618571Y-109041428D01*
X156475714Y-109112857D01*
X155975714Y-109112857D01*
X157761428Y-108398571D02*
X157904285Y-108398571D01*
X158047142Y-108470000D01*
X158118571Y-108541428D01*
X158190000Y-108684285D01*
X158261428Y-108970000D01*
X158261428Y-109327142D01*
X158190000Y-109612857D01*
X158118571Y-109755714D01*
X158047142Y-109827142D01*
X157904285Y-109898571D01*
X157761428Y-109898571D01*
X157618571Y-109827142D01*
X157547142Y-109755714D01*
X157475714Y-109612857D01*
X157404285Y-109327142D01*
X157404285Y-108970000D01*
X157475714Y-108684285D01*
X157547142Y-108541428D01*
X157618571Y-108470000D01*
X157761428Y-108398571D01*
X151682142Y-102278571D02*
X151682142Y-100778571D01*
X152039285Y-100778571D01*
X152253571Y-100850000D01*
X152396428Y-100992857D01*
X152467857Y-101135714D01*
X152539285Y-101421428D01*
X152539285Y-101635714D01*
X152467857Y-101921428D01*
X152396428Y-102064285D01*
X152253571Y-102207142D01*
X152039285Y-102278571D01*
X151682142Y-102278571D01*
X153110714Y-101850000D02*
X153825000Y-101850000D01*
X152967857Y-102278571D02*
X153467857Y-100778571D01*
X153967857Y-102278571D01*
X154467857Y-102278571D02*
X154467857Y-100778571D01*
X154825000Y-100778571D01*
X155039285Y-100850000D01*
X155182142Y-100992857D01*
X155253571Y-101135714D01*
X155325000Y-101421428D01*
X155325000Y-101635714D01*
X155253571Y-101921428D01*
X155182142Y-102064285D01*
X155039285Y-102207142D01*
X154825000Y-102278571D01*
X154467857Y-102278571D01*
X156467857Y-101492857D02*
X156682142Y-101564285D01*
X156753571Y-101635714D01*
X156825000Y-101778571D01*
X156825000Y-101992857D01*
X156753571Y-102135714D01*
X156682142Y-102207142D01*
X156539285Y-102278571D01*
X155967857Y-102278571D01*
X155967857Y-100778571D01*
X156467857Y-100778571D01*
X156610714Y-100850000D01*
X156682142Y-100921428D01*
X156753571Y-101064285D01*
X156753571Y-101207142D01*
X156682142Y-101350000D01*
X156610714Y-101421428D01*
X156467857Y-101492857D01*
X155967857Y-101492857D01*
X157396428Y-100921428D02*
X157467857Y-100850000D01*
X157610714Y-100778571D01*
X157967857Y-100778571D01*
X158110714Y-100850000D01*
X158182142Y-100921428D01*
X158253571Y-101064285D01*
X158253571Y-101207142D01*
X158182142Y-101421428D01*
X157325000Y-102278571D01*
X158253571Y-102278571D01*
X151690000Y-99738571D02*
X151690000Y-98238571D01*
X152047142Y-98238571D01*
X152261428Y-98310000D01*
X152404285Y-98452857D01*
X152475714Y-98595714D01*
X152547142Y-98881428D01*
X152547142Y-99095714D01*
X152475714Y-99381428D01*
X152404285Y-99524285D01*
X152261428Y-99667142D01*
X152047142Y-99738571D01*
X151690000Y-99738571D01*
X153118571Y-99310000D02*
X153832857Y-99310000D01*
X152975714Y-99738571D02*
X153475714Y-98238571D01*
X153975714Y-99738571D01*
X154475714Y-99738571D02*
X154475714Y-98238571D01*
X154832857Y-98238571D01*
X155047142Y-98310000D01*
X155190000Y-98452857D01*
X155261428Y-98595714D01*
X155332857Y-98881428D01*
X155332857Y-99095714D01*
X155261428Y-99381428D01*
X155190000Y-99524285D01*
X155047142Y-99667142D01*
X154832857Y-99738571D01*
X154475714Y-99738571D01*
X156475714Y-98952857D02*
X156690000Y-99024285D01*
X156761428Y-99095714D01*
X156832857Y-99238571D01*
X156832857Y-99452857D01*
X156761428Y-99595714D01*
X156690000Y-99667142D01*
X156547142Y-99738571D01*
X155975714Y-99738571D01*
X155975714Y-98238571D01*
X156475714Y-98238571D01*
X156618571Y-98310000D01*
X156690000Y-98381428D01*
X156761428Y-98524285D01*
X156761428Y-98667142D01*
X156690000Y-98810000D01*
X156618571Y-98881428D01*
X156475714Y-98952857D01*
X155975714Y-98952857D01*
X157332857Y-98238571D02*
X158261428Y-98238571D01*
X157761428Y-98810000D01*
X157975714Y-98810000D01*
X158118571Y-98881428D01*
X158190000Y-98952857D01*
X158261428Y-99095714D01*
X158261428Y-99452857D01*
X158190000Y-99595714D01*
X158118571Y-99667142D01*
X157975714Y-99738571D01*
X157547142Y-99738571D01*
X157404285Y-99667142D01*
X157332857Y-99595714D01*
X151690000Y-97198571D02*
X151690000Y-95698571D01*
X152047142Y-95698571D01*
X152261428Y-95770000D01*
X152404285Y-95912857D01*
X152475714Y-96055714D01*
X152547142Y-96341428D01*
X152547142Y-96555714D01*
X152475714Y-96841428D01*
X152404285Y-96984285D01*
X152261428Y-97127142D01*
X152047142Y-97198571D01*
X151690000Y-97198571D01*
X153118571Y-96770000D02*
X153832857Y-96770000D01*
X152975714Y-97198571D02*
X153475714Y-95698571D01*
X153975714Y-97198571D01*
X154475714Y-97198571D02*
X154475714Y-95698571D01*
X154832857Y-95698571D01*
X155047142Y-95770000D01*
X155190000Y-95912857D01*
X155261428Y-96055714D01*
X155332857Y-96341428D01*
X155332857Y-96555714D01*
X155261428Y-96841428D01*
X155190000Y-96984285D01*
X155047142Y-97127142D01*
X154832857Y-97198571D01*
X154475714Y-97198571D01*
X156475714Y-96412857D02*
X156690000Y-96484285D01*
X156761428Y-96555714D01*
X156832857Y-96698571D01*
X156832857Y-96912857D01*
X156761428Y-97055714D01*
X156690000Y-97127142D01*
X156547142Y-97198571D01*
X155975714Y-97198571D01*
X155975714Y-95698571D01*
X156475714Y-95698571D01*
X156618571Y-95770000D01*
X156690000Y-95841428D01*
X156761428Y-95984285D01*
X156761428Y-96127142D01*
X156690000Y-96270000D01*
X156618571Y-96341428D01*
X156475714Y-96412857D01*
X155975714Y-96412857D01*
X158118571Y-96198571D02*
X158118571Y-97198571D01*
X157761428Y-95627142D02*
X157404285Y-96698571D01*
X158332857Y-96698571D01*
X151690000Y-94658571D02*
X151690000Y-93158571D01*
X152047142Y-93158571D01*
X152261428Y-93230000D01*
X152404285Y-93372857D01*
X152475714Y-93515714D01*
X152547142Y-93801428D01*
X152547142Y-94015714D01*
X152475714Y-94301428D01*
X152404285Y-94444285D01*
X152261428Y-94587142D01*
X152047142Y-94658571D01*
X151690000Y-94658571D01*
X153118571Y-94230000D02*
X153832857Y-94230000D01*
X152975714Y-94658571D02*
X153475714Y-93158571D01*
X153975714Y-94658571D01*
X154475714Y-94658571D02*
X154475714Y-93158571D01*
X154832857Y-93158571D01*
X155047142Y-93230000D01*
X155190000Y-93372857D01*
X155261428Y-93515714D01*
X155332857Y-93801428D01*
X155332857Y-94015714D01*
X155261428Y-94301428D01*
X155190000Y-94444285D01*
X155047142Y-94587142D01*
X154832857Y-94658571D01*
X154475714Y-94658571D01*
X156475714Y-93872857D02*
X156690000Y-93944285D01*
X156761428Y-94015714D01*
X156832857Y-94158571D01*
X156832857Y-94372857D01*
X156761428Y-94515714D01*
X156690000Y-94587142D01*
X156547142Y-94658571D01*
X155975714Y-94658571D01*
X155975714Y-93158571D01*
X156475714Y-93158571D01*
X156618571Y-93230000D01*
X156690000Y-93301428D01*
X156761428Y-93444285D01*
X156761428Y-93587142D01*
X156690000Y-93730000D01*
X156618571Y-93801428D01*
X156475714Y-93872857D01*
X155975714Y-93872857D01*
X158118571Y-93158571D02*
X157832857Y-93158571D01*
X157690000Y-93230000D01*
X157618571Y-93301428D01*
X157475714Y-93515714D01*
X157404285Y-93801428D01*
X157404285Y-94372857D01*
X157475714Y-94515714D01*
X157547142Y-94587142D01*
X157690000Y-94658571D01*
X157975714Y-94658571D01*
X158118571Y-94587142D01*
X158190000Y-94515714D01*
X158261428Y-94372857D01*
X158261428Y-94015714D01*
X158190000Y-93872857D01*
X158118571Y-93801428D01*
X157975714Y-93730000D01*
X157690000Y-93730000D01*
X157547142Y-93801428D01*
X157475714Y-93872857D01*
X157404285Y-94015714D01*
X151682142Y-92118571D02*
X151682142Y-90618571D01*
X152039285Y-90618571D01*
X152253571Y-90690000D01*
X152396428Y-90832857D01*
X152467857Y-90975714D01*
X152539285Y-91261428D01*
X152539285Y-91475714D01*
X152467857Y-91761428D01*
X152396428Y-91904285D01*
X152253571Y-92047142D01*
X152039285Y-92118571D01*
X151682142Y-92118571D01*
X153110714Y-91690000D02*
X153825000Y-91690000D01*
X152967857Y-92118571D02*
X153467857Y-90618571D01*
X153967857Y-92118571D01*
X154467857Y-92118571D02*
X154467857Y-90618571D01*
X154825000Y-90618571D01*
X155039285Y-90690000D01*
X155182142Y-90832857D01*
X155253571Y-90975714D01*
X155325000Y-91261428D01*
X155325000Y-91475714D01*
X155253571Y-91761428D01*
X155182142Y-91904285D01*
X155039285Y-92047142D01*
X154825000Y-92118571D01*
X154467857Y-92118571D01*
X156467857Y-91332857D02*
X156682142Y-91404285D01*
X156753571Y-91475714D01*
X156825000Y-91618571D01*
X156825000Y-91832857D01*
X156753571Y-91975714D01*
X156682142Y-92047142D01*
X156539285Y-92118571D01*
X155967857Y-92118571D01*
X155967857Y-90618571D01*
X156467857Y-90618571D01*
X156610714Y-90690000D01*
X156682142Y-90761428D01*
X156753571Y-90904285D01*
X156753571Y-91047142D01*
X156682142Y-91190000D01*
X156610714Y-91261428D01*
X156467857Y-91332857D01*
X155967857Y-91332857D01*
X158110714Y-90618571D02*
X157825000Y-90618571D01*
X157682142Y-90690000D01*
X157610714Y-90761428D01*
X157467857Y-90975714D01*
X157396428Y-91261428D01*
X157396428Y-91832857D01*
X157467857Y-91975714D01*
X157539285Y-92047142D01*
X157682142Y-92118571D01*
X157967857Y-92118571D01*
X158110714Y-92047142D01*
X158182142Y-91975714D01*
X158253571Y-91832857D01*
X158253571Y-91475714D01*
X158182142Y-91332857D01*
X158110714Y-91261428D01*
X157967857Y-91190000D01*
X157682142Y-91190000D01*
X157539285Y-91261428D01*
X157467857Y-91332857D01*
X157396428Y-91475714D01*
X151690000Y-89578571D02*
X151690000Y-88078571D01*
X152047142Y-88078571D01*
X152261428Y-88150000D01*
X152404285Y-88292857D01*
X152475714Y-88435714D01*
X152547142Y-88721428D01*
X152547142Y-88935714D01*
X152475714Y-89221428D01*
X152404285Y-89364285D01*
X152261428Y-89507142D01*
X152047142Y-89578571D01*
X151690000Y-89578571D01*
X153118571Y-89150000D02*
X153832857Y-89150000D01*
X152975714Y-89578571D02*
X153475714Y-88078571D01*
X153975714Y-89578571D01*
X154475714Y-89578571D02*
X154475714Y-88078571D01*
X154832857Y-88078571D01*
X155047142Y-88150000D01*
X155190000Y-88292857D01*
X155261428Y-88435714D01*
X155332857Y-88721428D01*
X155332857Y-88935714D01*
X155261428Y-89221428D01*
X155190000Y-89364285D01*
X155047142Y-89507142D01*
X154832857Y-89578571D01*
X154475714Y-89578571D01*
X156475714Y-88792857D02*
X156690000Y-88864285D01*
X156761428Y-88935714D01*
X156832857Y-89078571D01*
X156832857Y-89292857D01*
X156761428Y-89435714D01*
X156690000Y-89507142D01*
X156547142Y-89578571D01*
X155975714Y-89578571D01*
X155975714Y-88078571D01*
X156475714Y-88078571D01*
X156618571Y-88150000D01*
X156690000Y-88221428D01*
X156761428Y-88364285D01*
X156761428Y-88507142D01*
X156690000Y-88650000D01*
X156618571Y-88721428D01*
X156475714Y-88792857D01*
X155975714Y-88792857D01*
X157332857Y-88078571D02*
X158332857Y-88078571D01*
X157690000Y-89578571D01*
X151682142Y-87038571D02*
X151682142Y-85538571D01*
X152039285Y-85538571D01*
X152253571Y-85610000D01*
X152396428Y-85752857D01*
X152467857Y-85895714D01*
X152539285Y-86181428D01*
X152539285Y-86395714D01*
X152467857Y-86681428D01*
X152396428Y-86824285D01*
X152253571Y-86967142D01*
X152039285Y-87038571D01*
X151682142Y-87038571D01*
X153110714Y-86610000D02*
X153825000Y-86610000D01*
X152967857Y-87038571D02*
X153467857Y-85538571D01*
X153967857Y-87038571D01*
X154467857Y-87038571D02*
X154467857Y-85538571D01*
X154825000Y-85538571D01*
X155039285Y-85610000D01*
X155182142Y-85752857D01*
X155253571Y-85895714D01*
X155325000Y-86181428D01*
X155325000Y-86395714D01*
X155253571Y-86681428D01*
X155182142Y-86824285D01*
X155039285Y-86967142D01*
X154825000Y-87038571D01*
X154467857Y-87038571D01*
X156825000Y-86895714D02*
X156753571Y-86967142D01*
X156539285Y-87038571D01*
X156396428Y-87038571D01*
X156182142Y-86967142D01*
X156039285Y-86824285D01*
X155967857Y-86681428D01*
X155896428Y-86395714D01*
X155896428Y-86181428D01*
X155967857Y-85895714D01*
X156039285Y-85752857D01*
X156182142Y-85610000D01*
X156396428Y-85538571D01*
X156539285Y-85538571D01*
X156753571Y-85610000D01*
X156825000Y-85681428D01*
X158182142Y-87038571D02*
X157467857Y-87038571D01*
X157467857Y-85538571D01*
X158682142Y-87038571D02*
X158682142Y-85538571D01*
X159539285Y-87038571D02*
X158896428Y-86181428D01*
X159539285Y-85538571D02*
X158682142Y-86395714D01*
X152225714Y-82998571D02*
X152725714Y-84498571D01*
X153225714Y-82998571D01*
X154582857Y-84355714D02*
X154511428Y-84427142D01*
X154297142Y-84498571D01*
X154154285Y-84498571D01*
X153940000Y-84427142D01*
X153797142Y-84284285D01*
X153725714Y-84141428D01*
X153654285Y-83855714D01*
X153654285Y-83641428D01*
X153725714Y-83355714D01*
X153797142Y-83212857D01*
X153940000Y-83070000D01*
X154154285Y-82998571D01*
X154297142Y-82998571D01*
X154511428Y-83070000D01*
X154582857Y-83141428D01*
X156082857Y-84355714D02*
X156011428Y-84427142D01*
X155797142Y-84498571D01*
X155654285Y-84498571D01*
X155440000Y-84427142D01*
X155297142Y-84284285D01*
X155225714Y-84141428D01*
X155154285Y-83855714D01*
X155154285Y-83641428D01*
X155225714Y-83355714D01*
X155297142Y-83212857D01*
X155440000Y-83070000D01*
X155654285Y-82998571D01*
X155797142Y-82998571D01*
X156011428Y-83070000D01*
X156082857Y-83141428D01*
X157440000Y-82998571D02*
X156725714Y-82998571D01*
X156654285Y-83712857D01*
X156725714Y-83641428D01*
X156868571Y-83570000D01*
X157225714Y-83570000D01*
X157368571Y-83641428D01*
X157440000Y-83712857D01*
X157511428Y-83855714D01*
X157511428Y-84212857D01*
X157440000Y-84355714D01*
X157368571Y-84427142D01*
X157225714Y-84498571D01*
X156868571Y-84498571D01*
X156725714Y-84427142D01*
X156654285Y-84355714D01*
X151690000Y-107358571D02*
X151690000Y-105858571D01*
X152047142Y-105858571D01*
X152261428Y-105930000D01*
X152404285Y-106072857D01*
X152475714Y-106215714D01*
X152547142Y-106501428D01*
X152547142Y-106715714D01*
X152475714Y-107001428D01*
X152404285Y-107144285D01*
X152261428Y-107287142D01*
X152047142Y-107358571D01*
X151690000Y-107358571D01*
X153118571Y-106930000D02*
X153832857Y-106930000D01*
X152975714Y-107358571D02*
X153475714Y-105858571D01*
X153975714Y-107358571D01*
X154475714Y-107358571D02*
X154475714Y-105858571D01*
X154832857Y-105858571D01*
X155047142Y-105930000D01*
X155190000Y-106072857D01*
X155261428Y-106215714D01*
X155332857Y-106501428D01*
X155332857Y-106715714D01*
X155261428Y-107001428D01*
X155190000Y-107144285D01*
X155047142Y-107287142D01*
X154832857Y-107358571D01*
X154475714Y-107358571D01*
X156475714Y-106572857D02*
X156690000Y-106644285D01*
X156761428Y-106715714D01*
X156832857Y-106858571D01*
X156832857Y-107072857D01*
X156761428Y-107215714D01*
X156690000Y-107287142D01*
X156547142Y-107358571D01*
X155975714Y-107358571D01*
X155975714Y-105858571D01*
X156475714Y-105858571D01*
X156618571Y-105930000D01*
X156690000Y-106001428D01*
X156761428Y-106144285D01*
X156761428Y-106287142D01*
X156690000Y-106430000D01*
X156618571Y-106501428D01*
X156475714Y-106572857D01*
X155975714Y-106572857D01*
X157761428Y-105858571D02*
X157904285Y-105858571D01*
X158047142Y-105930000D01*
X158118571Y-106001428D01*
X158190000Y-106144285D01*
X158261428Y-106430000D01*
X158261428Y-106787142D01*
X158190000Y-107072857D01*
X158118571Y-107215714D01*
X158047142Y-107287142D01*
X157904285Y-107358571D01*
X157761428Y-107358571D01*
X157618571Y-107287142D01*
X157547142Y-107215714D01*
X157475714Y-107072857D01*
X157404285Y-106787142D01*
X157404285Y-106430000D01*
X157475714Y-106144285D01*
X157547142Y-106001428D01*
X157618571Y-105930000D01*
X157761428Y-105858571D01*
X151690000Y-104818571D02*
X151690000Y-103318571D01*
X152047142Y-103318571D01*
X152261428Y-103390000D01*
X152404285Y-103532857D01*
X152475714Y-103675714D01*
X152547142Y-103961428D01*
X152547142Y-104175714D01*
X152475714Y-104461428D01*
X152404285Y-104604285D01*
X152261428Y-104747142D01*
X152047142Y-104818571D01*
X151690000Y-104818571D01*
X153118571Y-104390000D02*
X153832857Y-104390000D01*
X152975714Y-104818571D02*
X153475714Y-103318571D01*
X153975714Y-104818571D01*
X154475714Y-104818571D02*
X154475714Y-103318571D01*
X154832857Y-103318571D01*
X155047142Y-103390000D01*
X155190000Y-103532857D01*
X155261428Y-103675714D01*
X155332857Y-103961428D01*
X155332857Y-104175714D01*
X155261428Y-104461428D01*
X155190000Y-104604285D01*
X155047142Y-104747142D01*
X154832857Y-104818571D01*
X154475714Y-104818571D01*
X156475714Y-104032857D02*
X156690000Y-104104285D01*
X156761428Y-104175714D01*
X156832857Y-104318571D01*
X156832857Y-104532857D01*
X156761428Y-104675714D01*
X156690000Y-104747142D01*
X156547142Y-104818571D01*
X155975714Y-104818571D01*
X155975714Y-103318571D01*
X156475714Y-103318571D01*
X156618571Y-103390000D01*
X156690000Y-103461428D01*
X156761428Y-103604285D01*
X156761428Y-103747142D01*
X156690000Y-103890000D01*
X156618571Y-103961428D01*
X156475714Y-104032857D01*
X155975714Y-104032857D01*
X158261428Y-104818571D02*
X157404285Y-104818571D01*
X157832857Y-104818571D02*
X157832857Y-103318571D01*
X157690000Y-103532857D01*
X157547142Y-103675714D01*
X157404285Y-103747142D01*
D12*
G04 #@! TO.C,J5*
X177740000Y-130870000D02*
X182940000Y-130870000D01*
X177740000Y-90170000D02*
X177740000Y-130870000D01*
X182940000Y-87570000D02*
X182940000Y-130870000D01*
X177740000Y-90170000D02*
X180340000Y-90170000D01*
X180340000Y-90170000D02*
X180340000Y-87570000D01*
X180340000Y-87570000D02*
X182940000Y-87570000D01*
X177740000Y-88900000D02*
X177740000Y-87570000D01*
X177740000Y-87570000D02*
X179070000Y-87570000D01*
G04 #@! TO.C,J4*
X162500000Y-87570000D02*
X163830000Y-87570000D01*
X162500000Y-88900000D02*
X162500000Y-87570000D01*
X165100000Y-87570000D02*
X167700000Y-87570000D01*
X165100000Y-90170000D02*
X165100000Y-87570000D01*
X162500000Y-90170000D02*
X165100000Y-90170000D01*
X167700000Y-87570000D02*
X167700000Y-130870000D01*
X162500000Y-90170000D02*
X162500000Y-130870000D01*
X162500000Y-130870000D02*
X167700000Y-130870000D01*
G04 #@! TO.C,J2*
X134680000Y-133410000D02*
X133350000Y-133410000D01*
X134680000Y-132080000D02*
X134680000Y-133410000D01*
X132080000Y-133410000D02*
X129480000Y-133410000D01*
X132080000Y-130810000D02*
X132080000Y-133410000D01*
X134680000Y-130810000D02*
X132080000Y-130810000D01*
X129480000Y-133410000D02*
X129480000Y-82490000D01*
X134680000Y-130810000D02*
X134680000Y-82490000D01*
X134680000Y-82490000D02*
X129480000Y-82490000D01*
G04 #@! TO.C,J1*
X120650000Y-133350000D02*
X119380000Y-133350000D01*
X120650000Y-132080000D02*
X120650000Y-133350000D01*
X118337071Y-83440000D02*
X117882929Y-83440000D01*
X118337071Y-84200000D02*
X117882929Y-84200000D01*
X115797071Y-83440000D02*
X115400000Y-83440000D01*
X115797071Y-84200000D02*
X115400000Y-84200000D01*
X106740000Y-83440000D02*
X112740000Y-83440000D01*
X106740000Y-84200000D02*
X106740000Y-83440000D01*
X112740000Y-84200000D02*
X106740000Y-84200000D01*
X115400000Y-85090000D02*
X112740000Y-85090000D01*
X118337071Y-85980000D02*
X117882929Y-85980000D01*
X118337071Y-86740000D02*
X117882929Y-86740000D01*
X115797071Y-85980000D02*
X115400000Y-85980000D01*
X115797071Y-86740000D02*
X115400000Y-86740000D01*
X106740000Y-85980000D02*
X112740000Y-85980000D01*
X106740000Y-86740000D02*
X106740000Y-85980000D01*
X112740000Y-86740000D02*
X106740000Y-86740000D01*
X115400000Y-87630000D02*
X112740000Y-87630000D01*
X118337071Y-88520000D02*
X117882929Y-88520000D01*
X118337071Y-89280000D02*
X117882929Y-89280000D01*
X115797071Y-88520000D02*
X115400000Y-88520000D01*
X115797071Y-89280000D02*
X115400000Y-89280000D01*
X106740000Y-88520000D02*
X112740000Y-88520000D01*
X106740000Y-89280000D02*
X106740000Y-88520000D01*
X112740000Y-89280000D02*
X106740000Y-89280000D01*
X115400000Y-90170000D02*
X112740000Y-90170000D01*
X118337071Y-91060000D02*
X117882929Y-91060000D01*
X118337071Y-91820000D02*
X117882929Y-91820000D01*
X115797071Y-91060000D02*
X115400000Y-91060000D01*
X115797071Y-91820000D02*
X115400000Y-91820000D01*
X106740000Y-91060000D02*
X112740000Y-91060000D01*
X106740000Y-91820000D02*
X106740000Y-91060000D01*
X112740000Y-91820000D02*
X106740000Y-91820000D01*
X115400000Y-92710000D02*
X112740000Y-92710000D01*
X118337071Y-93600000D02*
X117882929Y-93600000D01*
X118337071Y-94360000D02*
X117882929Y-94360000D01*
X115797071Y-93600000D02*
X115400000Y-93600000D01*
X115797071Y-94360000D02*
X115400000Y-94360000D01*
X106740000Y-93600000D02*
X112740000Y-93600000D01*
X106740000Y-94360000D02*
X106740000Y-93600000D01*
X112740000Y-94360000D02*
X106740000Y-94360000D01*
X115400000Y-95250000D02*
X112740000Y-95250000D01*
X118337071Y-96140000D02*
X117882929Y-96140000D01*
X118337071Y-96900000D02*
X117882929Y-96900000D01*
X115797071Y-96140000D02*
X115400000Y-96140000D01*
X115797071Y-96900000D02*
X115400000Y-96900000D01*
X106740000Y-96140000D02*
X112740000Y-96140000D01*
X106740000Y-96900000D02*
X106740000Y-96140000D01*
X112740000Y-96900000D02*
X106740000Y-96900000D01*
X115400000Y-97790000D02*
X112740000Y-97790000D01*
X118337071Y-98680000D02*
X117882929Y-98680000D01*
X118337071Y-99440000D02*
X117882929Y-99440000D01*
X115797071Y-98680000D02*
X115400000Y-98680000D01*
X115797071Y-99440000D02*
X115400000Y-99440000D01*
X106740000Y-98680000D02*
X112740000Y-98680000D01*
X106740000Y-99440000D02*
X106740000Y-98680000D01*
X112740000Y-99440000D02*
X106740000Y-99440000D01*
X115400000Y-100330000D02*
X112740000Y-100330000D01*
X118337071Y-101220000D02*
X117882929Y-101220000D01*
X118337071Y-101980000D02*
X117882929Y-101980000D01*
X115797071Y-101220000D02*
X115400000Y-101220000D01*
X115797071Y-101980000D02*
X115400000Y-101980000D01*
X106740000Y-101220000D02*
X112740000Y-101220000D01*
X106740000Y-101980000D02*
X106740000Y-101220000D01*
X112740000Y-101980000D02*
X106740000Y-101980000D01*
X115400000Y-102870000D02*
X112740000Y-102870000D01*
X118337071Y-103760000D02*
X117882929Y-103760000D01*
X118337071Y-104520000D02*
X117882929Y-104520000D01*
X115797071Y-103760000D02*
X115400000Y-103760000D01*
X115797071Y-104520000D02*
X115400000Y-104520000D01*
X106740000Y-103760000D02*
X112740000Y-103760000D01*
X106740000Y-104520000D02*
X106740000Y-103760000D01*
X112740000Y-104520000D02*
X106740000Y-104520000D01*
X115400000Y-105410000D02*
X112740000Y-105410000D01*
X118337071Y-106300000D02*
X117882929Y-106300000D01*
X118337071Y-107060000D02*
X117882929Y-107060000D01*
X115797071Y-106300000D02*
X115400000Y-106300000D01*
X115797071Y-107060000D02*
X115400000Y-107060000D01*
X106740000Y-106300000D02*
X112740000Y-106300000D01*
X106740000Y-107060000D02*
X106740000Y-106300000D01*
X112740000Y-107060000D02*
X106740000Y-107060000D01*
X115400000Y-107950000D02*
X112740000Y-107950000D01*
X118337071Y-108840000D02*
X117882929Y-108840000D01*
X118337071Y-109600000D02*
X117882929Y-109600000D01*
X115797071Y-108840000D02*
X115400000Y-108840000D01*
X115797071Y-109600000D02*
X115400000Y-109600000D01*
X106740000Y-108840000D02*
X112740000Y-108840000D01*
X106740000Y-109600000D02*
X106740000Y-108840000D01*
X112740000Y-109600000D02*
X106740000Y-109600000D01*
X115400000Y-110490000D02*
X112740000Y-110490000D01*
X118337071Y-111380000D02*
X117882929Y-111380000D01*
X118337071Y-112140000D02*
X117882929Y-112140000D01*
X115797071Y-111380000D02*
X115400000Y-111380000D01*
X115797071Y-112140000D02*
X115400000Y-112140000D01*
X106740000Y-111380000D02*
X112740000Y-111380000D01*
X106740000Y-112140000D02*
X106740000Y-111380000D01*
X112740000Y-112140000D02*
X106740000Y-112140000D01*
X115400000Y-113030000D02*
X112740000Y-113030000D01*
X118337071Y-113920000D02*
X117882929Y-113920000D01*
X118337071Y-114680000D02*
X117882929Y-114680000D01*
X115797071Y-113920000D02*
X115400000Y-113920000D01*
X115797071Y-114680000D02*
X115400000Y-114680000D01*
X106740000Y-113920000D02*
X112740000Y-113920000D01*
X106740000Y-114680000D02*
X106740000Y-113920000D01*
X112740000Y-114680000D02*
X106740000Y-114680000D01*
X115400000Y-115570000D02*
X112740000Y-115570000D01*
X118337071Y-116460000D02*
X117882929Y-116460000D01*
X118337071Y-117220000D02*
X117882929Y-117220000D01*
X115797071Y-116460000D02*
X115400000Y-116460000D01*
X115797071Y-117220000D02*
X115400000Y-117220000D01*
X106740000Y-116460000D02*
X112740000Y-116460000D01*
X106740000Y-117220000D02*
X106740000Y-116460000D01*
X112740000Y-117220000D02*
X106740000Y-117220000D01*
X115400000Y-118110000D02*
X112740000Y-118110000D01*
X118337071Y-119000000D02*
X117882929Y-119000000D01*
X118337071Y-119760000D02*
X117882929Y-119760000D01*
X115797071Y-119000000D02*
X115400000Y-119000000D01*
X115797071Y-119760000D02*
X115400000Y-119760000D01*
X106740000Y-119000000D02*
X112740000Y-119000000D01*
X106740000Y-119760000D02*
X106740000Y-119000000D01*
X112740000Y-119760000D02*
X106740000Y-119760000D01*
X115400000Y-120650000D02*
X112740000Y-120650000D01*
X118337071Y-121540000D02*
X117882929Y-121540000D01*
X118337071Y-122300000D02*
X117882929Y-122300000D01*
X115797071Y-121540000D02*
X115400000Y-121540000D01*
X115797071Y-122300000D02*
X115400000Y-122300000D01*
X106740000Y-121540000D02*
X112740000Y-121540000D01*
X106740000Y-122300000D02*
X106740000Y-121540000D01*
X112740000Y-122300000D02*
X106740000Y-122300000D01*
X115400000Y-123190000D02*
X112740000Y-123190000D01*
X118337071Y-124080000D02*
X117882929Y-124080000D01*
X118337071Y-124840000D02*
X117882929Y-124840000D01*
X115797071Y-124080000D02*
X115400000Y-124080000D01*
X115797071Y-124840000D02*
X115400000Y-124840000D01*
X106740000Y-124080000D02*
X112740000Y-124080000D01*
X106740000Y-124840000D02*
X106740000Y-124080000D01*
X112740000Y-124840000D02*
X106740000Y-124840000D01*
X115400000Y-125730000D02*
X112740000Y-125730000D01*
X118337071Y-126620000D02*
X117882929Y-126620000D01*
X118337071Y-127380000D02*
X117882929Y-127380000D01*
X115797071Y-126620000D02*
X115400000Y-126620000D01*
X115797071Y-127380000D02*
X115400000Y-127380000D01*
X106740000Y-126620000D02*
X112740000Y-126620000D01*
X106740000Y-127380000D02*
X106740000Y-126620000D01*
X112740000Y-127380000D02*
X106740000Y-127380000D01*
X115400000Y-128270000D02*
X112740000Y-128270000D01*
X118337071Y-129160000D02*
X117882929Y-129160000D01*
X118337071Y-129920000D02*
X117882929Y-129920000D01*
X115797071Y-129160000D02*
X115400000Y-129160000D01*
X115797071Y-129920000D02*
X115400000Y-129920000D01*
X106740000Y-129160000D02*
X112740000Y-129160000D01*
X106740000Y-129920000D02*
X106740000Y-129160000D01*
X112740000Y-129920000D02*
X106740000Y-129920000D01*
X115400000Y-130810000D02*
X112740000Y-130810000D01*
X118270000Y-131700000D02*
X117882929Y-131700000D01*
X118270000Y-132460000D02*
X117882929Y-132460000D01*
X115797071Y-131700000D02*
X115400000Y-131700000D01*
X115797071Y-132460000D02*
X115400000Y-132460000D01*
X112740000Y-131800000D02*
X106740000Y-131800000D01*
X112740000Y-131920000D02*
X106740000Y-131920000D01*
X112740000Y-132040000D02*
X106740000Y-132040000D01*
X112740000Y-132160000D02*
X106740000Y-132160000D01*
X112740000Y-132280000D02*
X106740000Y-132280000D01*
X112740000Y-132400000D02*
X106740000Y-132400000D01*
X106740000Y-131700000D02*
X112740000Y-131700000D01*
X106740000Y-132460000D02*
X106740000Y-131700000D01*
X112740000Y-132460000D02*
X106740000Y-132460000D01*
X112740000Y-133410000D02*
X115400000Y-133410000D01*
X112740000Y-82490000D02*
X112740000Y-133410000D01*
X115400000Y-82490000D02*
X112740000Y-82490000D01*
X115400000Y-133410000D02*
X115400000Y-82490000D01*
G04 #@! TO.C,J3*
X145990000Y-133410000D02*
X151190000Y-133410000D01*
X145990000Y-85090000D02*
X145990000Y-133410000D01*
X151190000Y-82490000D02*
X151190000Y-133410000D01*
X145990000Y-85090000D02*
X148590000Y-85090000D01*
X148590000Y-85090000D02*
X148590000Y-82490000D01*
X148590000Y-82490000D02*
X151190000Y-82490000D01*
X145990000Y-83820000D02*
X145990000Y-82490000D01*
X145990000Y-82490000D02*
X147320000Y-82490000D01*
D13*
X149860000Y-83820000D02*
X147320000Y-83820000D01*
G04 #@! TO.C,J5*
X179371666Y-85177380D02*
X179371666Y-85891666D01*
X179324047Y-86034523D01*
X179228809Y-86129761D01*
X179085952Y-86177380D01*
X178990714Y-86177380D01*
X180324047Y-85177380D02*
X179847857Y-85177380D01*
X179800238Y-85653571D01*
X179847857Y-85605952D01*
X179943095Y-85558333D01*
X180181190Y-85558333D01*
X180276428Y-85605952D01*
X180324047Y-85653571D01*
X180371666Y-85748809D01*
X180371666Y-85986904D01*
X180324047Y-86082142D01*
X180276428Y-86129761D01*
X180181190Y-86177380D01*
X179943095Y-86177380D01*
X179847857Y-86129761D01*
X179800238Y-86082142D01*
G04 #@! TO.C,J4*
X164131666Y-85177380D02*
X164131666Y-85891666D01*
X164084047Y-86034523D01*
X163988809Y-86129761D01*
X163845952Y-86177380D01*
X163750714Y-86177380D01*
X165036428Y-85510714D02*
X165036428Y-86177380D01*
X164798333Y-85129761D02*
X164560238Y-85844047D01*
X165179285Y-85844047D01*
G04 #@! TO.C,J2*
X131746666Y-109942380D02*
X131746666Y-110656666D01*
X131699047Y-110799523D01*
X131603809Y-110894761D01*
X131460952Y-110942380D01*
X131365714Y-110942380D01*
X132175238Y-110037619D02*
X132222857Y-109990000D01*
X132318095Y-109942380D01*
X132556190Y-109942380D01*
X132651428Y-109990000D01*
X132699047Y-110037619D01*
X132746666Y-110132857D01*
X132746666Y-110228095D01*
X132699047Y-110370952D01*
X132127619Y-110942380D01*
X132746666Y-110942380D01*
G04 #@! TO.C,J1*
X117776666Y-109942380D02*
X117776666Y-110656666D01*
X117729047Y-110799523D01*
X117633809Y-110894761D01*
X117490952Y-110942380D01*
X117395714Y-110942380D01*
X118776666Y-110942380D02*
X118205238Y-110942380D01*
X118490952Y-110942380D02*
X118490952Y-109942380D01*
X118395714Y-110085238D01*
X118300476Y-110180476D01*
X118205238Y-110228095D01*
G04 #@! TO.C,J3*
X147621666Y-84542380D02*
X147621666Y-85256666D01*
X147574047Y-85399523D01*
X147478809Y-85494761D01*
X147335952Y-85542380D01*
X147240714Y-85542380D01*
X148002619Y-84542380D02*
X148621666Y-84542380D01*
X148288333Y-84923333D01*
X148431190Y-84923333D01*
X148526428Y-84970952D01*
X148574047Y-85018571D01*
X148621666Y-85113809D01*
X148621666Y-85351904D01*
X148574047Y-85447142D01*
X148526428Y-85494761D01*
X148431190Y-85542380D01*
X148145476Y-85542380D01*
X148050238Y-85494761D01*
X148002619Y-85447142D01*
G04 #@! TO.C,MH1*
X123126666Y-86812380D02*
X123126666Y-85812380D01*
X123460000Y-86526666D01*
X123793333Y-85812380D01*
X123793333Y-86812380D01*
X124269523Y-86812380D02*
X124269523Y-85812380D01*
X124269523Y-86288571D02*
X124840952Y-86288571D01*
X124840952Y-86812380D02*
X124840952Y-85812380D01*
X125840952Y-86812380D02*
X125269523Y-86812380D01*
X125555238Y-86812380D02*
X125555238Y-85812380D01*
X125460000Y-85955238D01*
X125364761Y-86050476D01*
X125269523Y-86098095D01*
G04 #@! TO.C,MH4*
X123126666Y-129992380D02*
X123126666Y-128992380D01*
X123460000Y-129706666D01*
X123793333Y-128992380D01*
X123793333Y-129992380D01*
X124269523Y-129992380D02*
X124269523Y-128992380D01*
X124269523Y-129468571D02*
X124840952Y-129468571D01*
X124840952Y-129992380D02*
X124840952Y-128992380D01*
X125745714Y-129325714D02*
X125745714Y-129992380D01*
X125507619Y-128944761D02*
X125269523Y-129659047D01*
X125888571Y-129659047D01*
G04 #@! TO.C,MH3*
X171386666Y-129992380D02*
X171386666Y-128992380D01*
X171720000Y-129706666D01*
X172053333Y-128992380D01*
X172053333Y-129992380D01*
X172529523Y-129992380D02*
X172529523Y-128992380D01*
X172529523Y-129468571D02*
X173100952Y-129468571D01*
X173100952Y-129992380D02*
X173100952Y-128992380D01*
X173481904Y-128992380D02*
X174100952Y-128992380D01*
X173767619Y-129373333D01*
X173910476Y-129373333D01*
X174005714Y-129420952D01*
X174053333Y-129468571D01*
X174100952Y-129563809D01*
X174100952Y-129801904D01*
X174053333Y-129897142D01*
X174005714Y-129944761D01*
X173910476Y-129992380D01*
X173624761Y-129992380D01*
X173529523Y-129944761D01*
X173481904Y-129897142D01*
G04 #@! TO.C,MH2*
X171386666Y-86812380D02*
X171386666Y-85812380D01*
X171720000Y-86526666D01*
X172053333Y-85812380D01*
X172053333Y-86812380D01*
X172529523Y-86812380D02*
X172529523Y-85812380D01*
X172529523Y-86288571D02*
X173100952Y-86288571D01*
X173100952Y-86812380D02*
X173100952Y-85812380D01*
X173529523Y-85907619D02*
X173577142Y-85860000D01*
X173672380Y-85812380D01*
X173910476Y-85812380D01*
X174005714Y-85860000D01*
X174053333Y-85907619D01*
X174100952Y-86002857D01*
X174100952Y-86098095D01*
X174053333Y-86240952D01*
X173481904Y-86812380D01*
X174100952Y-86812380D01*
G04 #@! TD*
M02*
