G04 #@! TF.GenerationSoftware,KiCad,Pcbnew,(5.0.0)*
G04 #@! TF.CreationDate,2019-03-31T19:03:55-07:00*
G04 #@! TF.ProjectId,ulx3s_to_adda,756C7833735F746F5F616464612E6B69,rev?*
G04 #@! TF.SameCoordinates,Original*
G04 #@! TF.FileFunction,Soldermask,Top*
G04 #@! TF.FilePolarity,Negative*
%FSLAX46Y46*%
G04 Gerber Fmt 4.6, Leading zero omitted, Abs format (unit mm)*
G04 Created by KiCad (PCBNEW (5.0.0)) date 03/31/19 19:03:55*
%MOMM*%
%LPD*%
G01*
G04 APERTURE LIST*
%ADD10O,1.800000X1.800000*%
%ADD11C,1.800000*%
%ADD12R,2.100000X2.100000*%
%ADD13O,2.100000X2.100000*%
%ADD14C,5.900000*%
G04 APERTURE END LIST*
D10*
G04 #@! TO.C,R1*
X139065000Y-88900000D03*
D11*
X139065000Y-86360000D03*
G04 #@! TD*
D12*
G04 #@! TO.C,J5*
X179070000Y-88900000D03*
D13*
X181610000Y-88900000D03*
X179070000Y-91440000D03*
X181610000Y-91440000D03*
X179070000Y-93980000D03*
X181610000Y-93980000D03*
X179070000Y-96520000D03*
X181610000Y-96520000D03*
X179070000Y-99060000D03*
X181610000Y-99060000D03*
X179070000Y-101600000D03*
X181610000Y-101600000D03*
X179070000Y-104140000D03*
X181610000Y-104140000D03*
X179070000Y-106680000D03*
X181610000Y-106680000D03*
X179070000Y-109220000D03*
X181610000Y-109220000D03*
X179070000Y-111760000D03*
X181610000Y-111760000D03*
X179070000Y-114300000D03*
X181610000Y-114300000D03*
X179070000Y-116840000D03*
X181610000Y-116840000D03*
X179070000Y-119380000D03*
X181610000Y-119380000D03*
X179070000Y-121920000D03*
X181610000Y-121920000D03*
X179070000Y-124460000D03*
X181610000Y-124460000D03*
X179070000Y-127000000D03*
X181610000Y-127000000D03*
X179070000Y-129540000D03*
X181610000Y-129540000D03*
G04 #@! TD*
G04 #@! TO.C,J4*
X166370000Y-129540000D03*
X163830000Y-129540000D03*
X166370000Y-127000000D03*
X163830000Y-127000000D03*
X166370000Y-124460000D03*
X163830000Y-124460000D03*
X166370000Y-121920000D03*
X163830000Y-121920000D03*
X166370000Y-119380000D03*
X163830000Y-119380000D03*
X166370000Y-116840000D03*
X163830000Y-116840000D03*
X166370000Y-114300000D03*
X163830000Y-114300000D03*
X166370000Y-111760000D03*
X163830000Y-111760000D03*
X166370000Y-109220000D03*
X163830000Y-109220000D03*
X166370000Y-106680000D03*
X163830000Y-106680000D03*
X166370000Y-104140000D03*
X163830000Y-104140000D03*
X166370000Y-101600000D03*
X163830000Y-101600000D03*
X166370000Y-99060000D03*
X163830000Y-99060000D03*
X166370000Y-96520000D03*
X163830000Y-96520000D03*
X166370000Y-93980000D03*
X163830000Y-93980000D03*
X166370000Y-91440000D03*
X163830000Y-91440000D03*
X166370000Y-88900000D03*
D12*
X163830000Y-88900000D03*
G04 #@! TD*
D13*
G04 #@! TO.C,J2*
X130810000Y-83820000D03*
X133350000Y-83820000D03*
X130810000Y-86360000D03*
X133350000Y-86360000D03*
X130810000Y-88900000D03*
X133350000Y-88900000D03*
X130810000Y-91440000D03*
X133350000Y-91440000D03*
X130810000Y-93980000D03*
X133350000Y-93980000D03*
X130810000Y-96520000D03*
X133350000Y-96520000D03*
X130810000Y-99060000D03*
X133350000Y-99060000D03*
X130810000Y-101600000D03*
X133350000Y-101600000D03*
X130810000Y-104140000D03*
X133350000Y-104140000D03*
X130810000Y-106680000D03*
X133350000Y-106680000D03*
X130810000Y-109220000D03*
X133350000Y-109220000D03*
X130810000Y-111760000D03*
X133350000Y-111760000D03*
X130810000Y-114300000D03*
X133350000Y-114300000D03*
X130810000Y-116840000D03*
X133350000Y-116840000D03*
X130810000Y-119380000D03*
X133350000Y-119380000D03*
X130810000Y-121920000D03*
X133350000Y-121920000D03*
X130810000Y-124460000D03*
X133350000Y-124460000D03*
X130810000Y-127000000D03*
X133350000Y-127000000D03*
X130810000Y-129540000D03*
X133350000Y-129540000D03*
X130810000Y-132080000D03*
D12*
X133350000Y-132080000D03*
G04 #@! TD*
D13*
G04 #@! TO.C,J1*
X116840000Y-83820000D03*
X119380000Y-83820000D03*
X116840000Y-86360000D03*
X119380000Y-86360000D03*
X116840000Y-88900000D03*
X119380000Y-88900000D03*
X116840000Y-91440000D03*
X119380000Y-91440000D03*
X116840000Y-93980000D03*
X119380000Y-93980000D03*
X116840000Y-96520000D03*
X119380000Y-96520000D03*
X116840000Y-99060000D03*
X119380000Y-99060000D03*
X116840000Y-101600000D03*
X119380000Y-101600000D03*
X116840000Y-104140000D03*
X119380000Y-104140000D03*
X116840000Y-106680000D03*
X119380000Y-106680000D03*
X116840000Y-109220000D03*
X119380000Y-109220000D03*
X116840000Y-111760000D03*
X119380000Y-111760000D03*
X116840000Y-114300000D03*
X119380000Y-114300000D03*
X116840000Y-116840000D03*
X119380000Y-116840000D03*
X116840000Y-119380000D03*
X119380000Y-119380000D03*
X116840000Y-121920000D03*
X119380000Y-121920000D03*
X116840000Y-124460000D03*
X119380000Y-124460000D03*
X116840000Y-127000000D03*
X119380000Y-127000000D03*
X116840000Y-129540000D03*
X119380000Y-129540000D03*
X116840000Y-132080000D03*
D12*
X119380000Y-132080000D03*
G04 #@! TD*
G04 #@! TO.C,J3*
X147320000Y-83820000D03*
D13*
X149860000Y-83820000D03*
X147320000Y-86360000D03*
X149860000Y-86360000D03*
X147320000Y-88900000D03*
X149860000Y-88900000D03*
X147320000Y-91440000D03*
X149860000Y-91440000D03*
X147320000Y-93980000D03*
X149860000Y-93980000D03*
X147320000Y-96520000D03*
X149860000Y-96520000D03*
X147320000Y-99060000D03*
X149860000Y-99060000D03*
X147320000Y-101600000D03*
X149860000Y-101600000D03*
X147320000Y-104140000D03*
X149860000Y-104140000D03*
X147320000Y-106680000D03*
X149860000Y-106680000D03*
X147320000Y-109220000D03*
X149860000Y-109220000D03*
X147320000Y-111760000D03*
X149860000Y-111760000D03*
X147320000Y-114300000D03*
X149860000Y-114300000D03*
X147320000Y-116840000D03*
X149860000Y-116840000D03*
X147320000Y-119380000D03*
X149860000Y-119380000D03*
X147320000Y-121920000D03*
X149860000Y-121920000D03*
X147320000Y-124460000D03*
X149860000Y-124460000D03*
X147320000Y-127000000D03*
X149860000Y-127000000D03*
X147320000Y-129540000D03*
X149860000Y-129540000D03*
X147320000Y-132080000D03*
X149860000Y-132080000D03*
G04 #@! TD*
D14*
G04 #@! TO.C,MH1*
X124460000Y-86360000D03*
G04 #@! TD*
G04 #@! TO.C,MH4*
X124460000Y-129540000D03*
G04 #@! TD*
G04 #@! TO.C,MH3*
X172720000Y-129540000D03*
G04 #@! TD*
G04 #@! TO.C,MH2*
X172720000Y-86360000D03*
G04 #@! TD*
M02*
