%FSLAX45Y45*%
G04 Gerber Fmt 4.5, Leading zero omitted, Abs format (unit mm)*
G04 Created by KiCad (PCBNEW (5.0.0)) date 03/31/19 19:03:46*
%MOMM*%
%LPD*%
G01*
G04 APERTURE LIST*
%ADD10C,0.150000*%
%ADD11C,0.200000*%
%ADD12C,0.300000*%
G04 APERTURE END LIST*
D10*
X11303000Y-8191500D02*
X11303000Y-13398500D01*
X18478500Y-8191500D02*
X11303000Y-8191500D01*
X18478500Y-13398500D02*
X18478500Y-8191500D01*
X11303000Y-13398500D02*
X18478500Y-13398500D01*
D11*
D12*
X11581928Y-13871714D02*
X11581928Y-13571714D01*
X11653357Y-13571714D01*
X11696214Y-13586000D01*
X11724786Y-13614571D01*
X11739071Y-13643143D01*
X11753357Y-13700286D01*
X11753357Y-13743143D01*
X11739071Y-13800286D01*
X11724786Y-13828857D01*
X11696214Y-13857429D01*
X11653357Y-13871714D01*
X11581928Y-13871714D01*
X11881928Y-13871714D02*
X11881928Y-13671714D01*
X11881928Y-13728857D02*
X11896214Y-13700286D01*
X11910500Y-13686000D01*
X11939071Y-13671714D01*
X11967643Y-13671714D01*
X12067643Y-13871714D02*
X12067643Y-13671714D01*
X12067643Y-13571714D02*
X12053357Y-13586000D01*
X12067643Y-13600286D01*
X12081928Y-13586000D01*
X12067643Y-13571714D01*
X12067643Y-13600286D01*
X12253357Y-13871714D02*
X12224786Y-13857429D01*
X12210500Y-13828857D01*
X12210500Y-13571714D01*
X12410500Y-13871714D02*
X12381928Y-13857429D01*
X12367643Y-13828857D01*
X12367643Y-13571714D01*
X12753357Y-13871714D02*
X12753357Y-13571714D01*
X12853357Y-13786000D01*
X12953357Y-13571714D01*
X12953357Y-13871714D01*
X13224786Y-13871714D02*
X13224786Y-13714571D01*
X13210500Y-13686000D01*
X13181928Y-13671714D01*
X13124786Y-13671714D01*
X13096214Y-13686000D01*
X13224786Y-13857429D02*
X13196214Y-13871714D01*
X13124786Y-13871714D01*
X13096214Y-13857429D01*
X13081928Y-13828857D01*
X13081928Y-13800286D01*
X13096214Y-13771714D01*
X13124786Y-13757429D01*
X13196214Y-13757429D01*
X13224786Y-13743143D01*
X13367643Y-13671714D02*
X13367643Y-13971714D01*
X13367643Y-13686000D02*
X13396214Y-13671714D01*
X13453357Y-13671714D01*
X13481928Y-13686000D01*
X13496214Y-13700286D01*
X13510500Y-13728857D01*
X13510500Y-13814571D01*
X13496214Y-13843143D01*
X13481928Y-13857429D01*
X13453357Y-13871714D01*
X13396214Y-13871714D01*
X13367643Y-13857429D01*
X13639071Y-13843143D02*
X13653357Y-13857429D01*
X13639071Y-13871714D01*
X13624786Y-13857429D01*
X13639071Y-13843143D01*
X13639071Y-13871714D01*
X13639071Y-13686000D02*
X13653357Y-13700286D01*
X13639071Y-13714571D01*
X13624786Y-13700286D01*
X13639071Y-13686000D01*
X13639071Y-13714571D01*
M02*
